<?xml version="1.0" encoding="UTF-8" standalone="no"?>
<!-- Created with Inkscape (http://www.inkscape.org/) -->

<svg
   xmlns:dc="http://purl.org/dc/elements/1.1/"
   xmlns:cc="http://creativecommons.org/ns#"
   xmlns:rdf="http://www.w3.org/1999/02/22-rdf-syntax-ns#"
   xmlns:svg="http://www.w3.org/2000/svg"
   xmlns="http://www.w3.org/2000/svg"
   version="1.1"
   width="100%"
   height="100%"
   viewBox="0 0 46 44"
   id="Layer_1"
   xml:space="preserve"><metadata
     id="metadata26"><rdf:RDF><cc:Work
         rdf:about=""><dc:format>image/svg+xml</dc:format><dc:type
           rdf:resource="http://purl.org/dc/dcmitype/StillImage" /><dc:title></dc:title></cc:Work></rdf:RDF></metadata><defs
     id="defs24" /><g
     transform="matrix(0.86440678,0,0,0.86440678,3.1186441,2.9830508)"
     id="rounded_arrow"><g
       id="g4"><line
         x1="43"
         y1="22"
         x2="3"
         y2="22"
         id="line6"
         style="fill:#ffffff" /><path
         d="M 43,25 H 3 C 1.3,25 0,23.7 0,22 0,20.3 1.3,19 3,19 h 40 c 1.7,0 3,1.3 3,3 0,1.7 -1.3,3 -3,3 z"
         id="path8"
         style="fill:#ffffff" /></g><g
       id="g10"><line
         x1="3"
         y1="22"
         x2="22"
         y2="3"
         id="line12"
         style="fill:#ffffff" /><path
         d="M 3,25 C 2.2,25 1.5,24.7 0.9,24.1 -0.3,22.9 -0.3,21 0.9,19.9 l 19,-19 c 1.2,-1.2 3.1,-1.2 4.2,0 1.2,1.2 1.2,3.1 0,4.2 l -19,19 C 4.5,24.7 3.8,25 3,25 z"
         id="path14"
         style="fill:#ffffff" /></g><g
       id="g16"><line
         x1="3"
         y1="22"
         x2="22"
         y2="41"
         id="line18"
         style="fill:#ffffff" /><path
         d="m 22,44 c -0.8,0 -1.5,-0.3 -2.1,-0.9 l -19,-19 c -1.2,-1.2 -1.2,-3.1 0,-4.2 1.2,-1.2 3.1,-1.2 4.2,0 l 19,19 c 1.2,1.2 1.2,3.1 0,4.2 C 23.5,43.7 22.8,44 22,44 z"
         id="path20"
         style="fill:#ffffff" /></g></g></svg>
