<?xml version="1.0" encoding="utf-8"?>
<!-- Generator: Adobe Illustrator 13.0.0, SVG Export Plug-In . SVG Version: 6.00 Build 14576)  -->
<!DOCTYPE svg PUBLIC "-//W3C//DTD SVG 1.1//EN" "http://www.w3.org/Graphics/SVG/1.1/DTD/svg11.dtd">
<svg version="1.1" id="Layer_1" xmlns="http://www.w3.org/2000/svg" xmlns:xlink="http://www.w3.org/1999/xlink" x="0px" y="0px"
	 width="55px" height="55px" viewBox="0 0 55 55" enable-background="new 0 0 55 55" xml:space="preserve">
<path fill="none" stroke="#FFFFFF" stroke-width="2" stroke-linecap="round" stroke-linejoin="round" d="19.406,5.889l23.942,5.085
	c4.4,0.933,7.219,5.267,6.274,9.665l-5.085,23.941c-0.934,4.401-5.268,7.219-9.663,6.278l-23.943-5.09
	c-4.4-0.929-7.218-5.265-6.275-9.663l5.084-23.94C10.673,7.762,15.009,4.943,19.406,5.889z"/>
<path fill="#FFFFFF" stroke="#FFFFFF" stroke-width="2" stroke-linecap="round" stroke-linejoin="round" d="17.646,14.184
	c0.398-1.894,2.26-3.091,4.143-2.696c1.891,0.409,3.091,2.261,2.697,4.146c-0.398,1.894-2.266,3.101-4.145,2.696
	C18.448,17.929,17.247,16.077,17.646,14.184z"/>
<path fill="#FFFFFF" stroke="#FFFFFF" stroke-width="2" stroke-linecap="round" stroke-linejoin="round" d="35.884,18.062
	c0.397-1.893,2.248-3.093,4.143-2.694c1.896,0.396,3.096,2.26,2.697,4.141c-0.409,1.892-2.265,3.093-4.155,2.693
	C36.688,21.809,35.479,19.942,35.884,18.062z"/>
<path fill="#FFFFFF" stroke="#FFFFFF" stroke-width="2" stroke-linecap="round" stroke-linejoin="round" d="30.97,41.183
	c0.393-1.885,2.26-3.092,4.14-2.687c1.894,0.399,3.097,2.252,2.694,4.146c-0.393,1.885-2.259,3.09-4.144,2.694
	C31.772,44.928,30.568,43.074,30.97,41.183z"/>
<path fill="#FFFFFF" stroke="#FFFFFF" stroke-width="2" stroke-linecap="round" stroke-linejoin="round" d="12.725,37.314
	c0.412-1.893,2.266-3.104,4.156-2.694c1.884,0.396,3.094,2.251,2.686,4.141c-0.396,1.894-2.25,3.095-4.142,2.695
	C13.533,41.047,12.33,39.195,12.725,37.314z"/>
<path fill="#FFFFFF" stroke="#FFFFFF" stroke-width="2" stroke-linecap="round" stroke-linejoin="round" d="15.151,25.922
	c0.399-1.894,2.26-3.091,4.143-2.696c1.89,0.409,3.09,2.261,2.697,4.145c-0.399,1.894-2.266,3.101-4.145,2.697
	C15.953,29.667,14.752,27.815,15.151,25.922z"/>
<path fill="#FFFFFF" stroke="#FFFFFF" stroke-width="2" stroke-linecap="round" stroke-linejoin="round" d="33.39,29.8
	c0.396-1.893,2.247-3.093,4.142-2.694c1.896,0.396,3.096,2.26,2.697,4.141c-0.409,1.891-2.264,3.093-4.154,2.692
	C34.193,33.547,32.984,31.681,33.39,29.8z"/>
</svg>
