<?xml version="1.0" encoding="utf-8"?>
<!-- Generator: Adobe Illustrator 18.1.0, SVG Export Plug-In . SVG Version: 6.00 Build 0)  -->
<!DOCTYPE svg PUBLIC "-//W3C//DTD SVG 1.1//EN" "http://www.w3.org/Graphics/SVG/1.1/DTD/svg11.dtd">
<svg version="1.1" id="Layer_1" xmlns="http://www.w3.org/2000/svg" xmlns:xlink="http://www.w3.org/1999/xlink" x="0px" y="0px"
	 viewBox="-933 938 127 125" enable-background="new -933 938 127 125" xml:space="preserve">
<g>
	<g>
		<path fill="#BF3437" d="M-806,951.9v97.1c0,1.7-0.3,3.4-0.9,4.9c0,0,0,0,0,0.1c-1.9,4.9-6.4,8.4-11.9,8.9h0c-0.4,0-0.7,0-1.1,0
			h-99.1c-7.7,0-13.9-6.2-13.9-13.9v-97.1c0-7.7,6.2-13.9,13.9-13.9h99.1C-812.2,938-806,944.2-806,951.9z"/>
	</g>
	<path fill="#A82D31" d="M-806.9,1054C-806.9,1054-806.9,1054.1-806.9,1054c-1.9,4.9-6.5,8.5-11.9,8.9h0c-0.2,0-0.3,0-0.5,0
		c-8.6,0-36.6,0-36.6,0l-52.2-51.2l12.9-45.2L-806.9,1054z"/>
	<polygon fill="#A82D31" points="-806,976.2 -819.7,962.6 -841.7,986 -806,1021.6 	"/>
	<path fill="#FFFFFF" d="M-862.7,974.5h27.4l-4.8,4.8c-2.2,2.2-2.2,5.8,0,8l0,0c2.2,2.2,5.8,2.2,8,0l14.5-14.5l0,0l0,0
		c0,0,0.1-0.1,0.1-0.1l0,0c0,0,0.1-0.1,0.1-0.1l0,0c0,0,0.1-0.1,0.1-0.1l0,0c0,0,0.1-0.1,0.1-0.1l0,0c0,0,0.1-0.1,0.1-0.1l0,0
		c0,0,0.1-0.1,0.1-0.1l0,0c0,0,0-0.1,0.1-0.1l0,0c0,0,0.1-0.1,0.1-0.1l0,0c0,0,0.1-0.1,0.1-0.1l0,0c0,0,0-0.1,0.1-0.1l0,0
		c0,0,0-0.1,0.1-0.1l0,0c0-0.1,0-0.1,0.1-0.1h0c0,0,0-0.1,0.1-0.1l0,0c0,0,0-0.1,0.1-0.1l0,0c0,0,0-0.1,0.1-0.1l0,0c0,0,0-0.1,0-0.1
		l0,0c0,0,0-0.1,0.1-0.1l0,0c0,0,0-0.1,0-0.1l0,0c0,0,0-0.1,0.1-0.1l0,0c0,0,0-0.1,0-0.1l0,0c0,0,0-0.1,0-0.1l0,0c0,0,0-0.1,0-0.1
		l0,0c0,0,0-0.1,0-0.1l0,0c0,0,0-0.1,0-0.1l0,0c0,0,0-0.1,0-0.1l0,0c0-0.1,0-0.1,0-0.1l0,0c0-0.1,0-0.1,0-0.1l0,0c0-0.1,0-0.1,0-0.1
		l0,0c0-0.1,0-0.1,0-0.1l0,0c0-0.1,0-0.1,0-0.1l0,0c0-0.1,0-0.1,0-0.1l0,0c0,0,0-0.1,0-0.1c0,0,0-0.1,0-0.1l0,0c0,0,0-0.1,0-0.1l0,0
		c0,0,0-0.1,0-0.1l0,0c0,0,0-0.1,0-0.1l0,0c0,0,0-0.1,0-0.1l0,0c0,0,0-0.1,0-0.1l0,0c0,0,0-0.1,0-0.1l0,0c0,0,0-0.1,0-0.1l0,0
		c0,0,0-0.1,0-0.1l0,0c0,0,0-0.1,0-0.1l0,0c0-0.1,0-0.1,0-0.1l0,0c0-0.1,0-0.1,0-0.1l0,0c0,0,0-0.1,0-0.1l0,0c0,0,0-0.1-0.1-0.1l0,0
		c0-0.1,0-0.1,0-0.1l0,0c0,0,0-0.1-0.1-0.1l0,0c0,0,0-0.1,0-0.1l0,0c0,0,0-0.1-0.1-0.1l0,0c0,0,0-0.1-0.1-0.1l0,0c0,0,0-0.1-0.1-0.1
		h0c0,0,0-0.1-0.1-0.1l0,0c0,0,0-0.1-0.1-0.1l0,0c0,0-0.1-0.1-0.1-0.1l0,0c0,0-0.1-0.1-0.1-0.1l0,0c0,0-0.1-0.1-0.1-0.1l0,0
		c0,0-0.1-0.1-0.1-0.1l0,0c0,0-0.1-0.1-0.1-0.1l0,0c0,0-0.1-0.1-0.1-0.1l0,0c0,0-0.1-0.1-0.1-0.1l0,0c0,0-0.1-0.1-0.1-0.1l0,0
		c0,0-0.1-0.1-0.1-0.1l0,0c0,0-0.1-0.1-0.1-0.1l0,0l-14.5-14.5c-2.2-2.2-5.8-2.2-8,0l0,0c-2.2,2.2-2.2,5.8,0,8l4.8,4.8h-27.4
		c-3.1,0-5.7,2.6-5.7,5.7l0,0C-868.4,972-865.8,974.5-862.7,974.5L-862.7,974.5z"/>
	<path fill="#FFFFFF" d="M-906,970.1v27.4l-4.8-4.8c-2.2-2.2-5.8-2.2-8,0l0,0c-2.2,2.2-2.2,5.8,0,8l14.5,14.5l0,0l0,0
		c0,0,0.1,0.1,0.1,0.1l0,0c0,0,0.1,0.1,0.1,0.1l0,0c0,0,0.1,0.1,0.1,0.1l0,0c0,0,0.1,0.1,0.1,0.1l0,0c0,0,0.1,0.1,0.1,0.1l0,0
		c0,0,0.1,0.1,0.1,0.1l0,0c0,0,0.1,0,0.1,0.1l0,0c0,0,0.1,0.1,0.1,0.1l0,0c0,0,0.1,0.1,0.1,0.1l0,0c0,0,0.1,0,0.1,0.1l0,0
		c0,0,0.1,0,0.1,0.1l0,0c0.1,0,0.1,0,0.1,0.1v0c0,0,0.1,0,0.1,0.1l0,0c0,0,0.1,0,0.1,0.1l0,0c0,0,0.1,0,0.1,0.1l0,0c0,0,0.1,0,0.1,0
		l0,0c0,0,0.1,0,0.1,0.1l0,0c0,0,0.1,0,0.1,0l0,0c0,0,0.1,0,0.1,0.1l0,0c0,0,0.1,0,0.1,0l0,0c0,0,0.1,0,0.1,0l0,0c0,0,0.1,0,0.1,0
		l0,0c0,0,0.1,0,0.1,0l0,0c0,0,0.1,0,0.1,0l0,0c0,0,0.1,0,0.1,0l0,0c0.1,0,0.1,0,0.1,0l0,0c0.1,0,0.1,0,0.1,0l0,0c0.1,0,0.1,0,0.1,0
		l0,0c0.1,0,0.1,0,0.1,0l0,0c0.1,0,0.1,0,0.1,0l0,0c0.1,0,0.1,0,0.1,0l0,0c0,0,0.1,0,0.1,0c0,0,0.1,0,0.1,0l0,0c0,0,0.1,0,0.1,0l0,0
		c0,0,0.1,0,0.1,0l0,0c0,0,0.1,0,0.1,0l0,0c0,0,0.1,0,0.1,0l0,0c0,0,0.1,0,0.1,0l0,0c0,0,0.1,0,0.1,0l0,0c0,0,0.1,0,0.1,0l0,0
		c0,0,0.1,0,0.1,0l0,0c0,0,0.1,0,0.1,0l0,0c0.1,0,0.1,0,0.1,0l0,0c0.1,0,0.1,0,0.1,0l0,0c0,0,0.1,0,0.1,0l0,0c0,0,0.1,0,0.1-0.1l0,0
		c0.1,0,0.1,0,0.1,0l0,0c0,0,0.1,0,0.1-0.1l0,0c0,0,0.1,0,0.1,0l0,0c0,0,0.1,0,0.1-0.1l0,0c0,0,0.1,0,0.1-0.1l0,0c0,0,0.1,0,0.1-0.1
		v0c0,0,0.1,0,0.1-0.1l0,0c0,0,0.1,0,0.1-0.1l0,0c0,0,0.1-0.1,0.1-0.1l0,0c0,0,0.1-0.1,0.1-0.1l0,0c0,0,0.1-0.1,0.1-0.1l0,0
		c0,0,0.1-0.1,0.1-0.1l0,0c0,0,0.1-0.1,0.1-0.1l0,0c0,0,0.1-0.1,0.1-0.1l0,0c0,0,0.1-0.1,0.1-0.1l0,0c0,0,0.1-0.1,0.1-0.1l0,0
		c0,0,0.1-0.1,0.1-0.1l0,0c0,0,0.1-0.1,0.1-0.1l0,0l14.5-14.5c2.2-2.2,2.2-5.8,0-8l0,0c-2.2-2.2-5.8-2.2-8,0l-4.8,4.8v-27.4
		c0-3.1-2.6-5.7-5.7-5.7l0,0C-903.5,964.4-906,967-906,970.1L-906,970.1z"/>
	<path fill="#A82D31" d="M-806,1040.1v9c0,1.8-0.3,3.4-0.9,5c-3.9-3.2-19.8-16.5-19.8-16.5l8.1-10.3L-806,1040.1z"/>
	<polygon fill="#A82D31" points="-843.3,1014.8 -831,1027 -835,1027 -844.5,1017.5 	"/>
	<path fill="#FFFFFF" d="M-821.6,1026.6H-849l4.8-4.8c2.2-2.2,2.2-5.8,0-8l0,0c-2.2-2.2-5.8-2.2-8,0l-14.5,14.5l0,0l0,0
		c0,0-0.1,0.1-0.1,0.1l0,0c0,0-0.1,0.1-0.1,0.1l0,0c0,0-0.1,0.1-0.1,0.1l0,0c0,0-0.1,0.1-0.1,0.1l0,0c0,0-0.1,0.1-0.1,0.1l0,0
		c0,0-0.1,0.1-0.1,0.1l0,0c0,0,0,0.1-0.1,0.1l0,0c0,0-0.1,0.1-0.1,0.1l0,0c0,0-0.1,0.1-0.1,0.1l0,0c0,0,0,0.1-0.1,0.1l0,0
		c0,0,0,0.1-0.1,0.1l0,0c0,0.1,0,0.1-0.1,0.1h0c0,0,0,0.1-0.1,0.1l0,0c0,0,0,0.1-0.1,0.1l0,0c0,0,0,0.1-0.1,0.1l0,0c0,0,0,0.1,0,0.1
		l0,0c0,0,0,0.1-0.1,0.1l0,0c0,0,0,0.1,0,0.1l0,0c0,0,0,0.1-0.1,0.1l0,0c0,0,0,0.1,0,0.1l0,0c0,0,0,0.1,0,0.1l0,0c0,0,0,0.1,0,0.1
		l0,0c0,0,0,0.1,0,0.1l0,0c0,0,0,0.1,0,0.1l0,0c0,0,0,0.1,0,0.1l0,0c0,0.1,0,0.1,0,0.1l0,0c0,0.1,0,0.1,0,0.1l0,0c0,0.1,0,0.1,0,0.1
		l0,0c0,0.1,0,0.1,0,0.1l0,0c0,0.1,0,0.1,0,0.1l0,0c0,0.1,0,0.1,0,0.1l0,0c0,0,0,0.1,0,0.1c0,0,0,0.1,0,0.1l0,0c0,0,0,0.1,0,0.1l0,0
		c0,0,0,0.1,0,0.1l0,0c0,0,0,0.1,0,0.1l0,0c0,0,0,0.1,0,0.1l0,0c0,0,0,0.1,0,0.1l0,0c0,0,0,0.1,0,0.1l0,0c0,0,0,0.1,0,0.1l0,0
		c0,0,0,0.1,0,0.1l0,0c0,0,0,0.1,0,0.1l0,0c0,0.1,0,0.1,0,0.1l0,0c0,0.1,0,0.1,0,0.1l0,0c0,0,0,0.1,0,0.1l0,0c0,0,0,0.1,0.1,0.1l0,0
		c0,0.1,0,0.1,0,0.1l0,0c0,0,0,0.1,0.1,0.1l0,0c0,0,0,0.1,0,0.1l0,0c0,0,0,0.1,0.1,0.1l0,0c0,0,0,0.1,0.1,0.1l0,0c0,0,0,0.1,0.1,0.1
		h0c0,0,0,0.1,0.1,0.1l0,0c0,0,0,0.1,0.1,0.1l0,0c0,0,0.1,0.1,0.1,0.1l0,0c0,0,0.1,0.1,0.1,0.1l0,0c0,0,0.1,0.1,0.1,0.1l0,0
		c0,0,0.1,0.1,0.1,0.1l0,0c0,0,0.1,0.1,0.1,0.1l0,0c0,0,0.1,0.1,0.1,0.1l0,0c0,0,0.1,0.1,0.1,0.1l0,0c0,0,0.1,0.1,0.1,0.1l0,0
		c0,0,0.1,0.1,0.1,0.1l0,0c0,0,0.1,0.1,0.1,0.1l0,0l14.5,14.5c2.2,2.2,5.8,2.2,8,0l0,0c2.2-2.2,2.2-5.8,0-8l-4.8-4.8h27.4
		c3.1,0,5.7-2.6,5.7-5.7l0,0C-815.9,1029.1-818.5,1026.6-821.6,1026.6L-821.6,1026.6z"/>
</g>
</svg>
