<?xml version="1.0" encoding="UTF-8" standalone="no"?>
<!-- Created with Inkscape (http://www.inkscape.org/) -->

<svg
   xmlns:dc="http://purl.org/dc/elements/1.1/"
   xmlns:cc="http://creativecommons.org/ns#"
   xmlns:rdf="http://www.w3.org/1999/02/22-rdf-syntax-ns#"
   xmlns:svg="http://www.w3.org/2000/svg"
   xmlns="http://www.w3.org/2000/svg"
   version="1.1"
   width="75"
   height="75"
   viewBox="0 0 75 75"
   id="Layer_1"
   xml:space="preserve"><metadata
     id="metadata3095"><rdf:RDF><cc:Work
         rdf:about=""><dc:format>image/svg+xml</dc:format><dc:type
           rdf:resource="http://purl.org/dc/dcmitype/StillImage" /><dc:title></dc:title></cc:Work></rdf:RDF></metadata><defs
     id="defs3093" /><g
     id="g3079"
     style="fill:#ffffff;fill-opacity:1"><path
       d="m 62.167,69.46 c -0.915,0 -1.701,-0.303 -2.273,-0.876 C 58.58,67.271 47.44,54.942 46.549,53.912 c -0.121,-0.141 -0.221,-0.274 -0.31,-0.42 -0.232,-0.38 -0.263,-0.849 -0.083,-1.256 0.181,-0.407 0.549,-0.699 0.986,-0.782 0.376,-0.071 1.216,-0.401 2.623,-1.807 1.515,-1.515 1.765,-2.368 1.802,-2.664 0.057,-0.448 0.332,-0.839 0.735,-1.041 0.192,-0.097 0.4,-0.146 0.609,-0.146 0.229,0 0.459,0.059 0.665,0.175 0.214,0.12 0.398,0.253 0.563,0.404 1.026,0.889 13.39,12.062 14.643,13.315 2.019,2.02 0.189,5.542 -1.438,7.288 -1.115,1.204 -3.311,2.482 -5.177,2.482 l 0,0 z"
       id="path3081"
       style="fill:#ffffff;fill-opacity:1" /><path
       d="m 52.912,47.152 c 0.101,0.057 0.209,0.127 0.313,0.223 0.935,0.811 13.332,12.007 14.599,13.274 1.268,1.268 -0.227,4.072 -1.47,5.406 -0.911,0.98 -2.765,2.049 -4.188,2.049 -0.518,0 -0.978,-0.141 -1.315,-0.479 -1.268,-1.268 -12.472,-13.669 -13.277,-14.601 -0.07,-0.081 -0.128,-0.157 -0.179,-0.24 0.767,-0.146 1.851,-0.703 3.328,-2.179 1.571,-1.57 2.093,-2.692 2.189,-3.453 m 0,-2.71 c -0.417,0 -0.835,0.096 -1.219,0.289 -0.803,0.404 -1.353,1.18 -1.469,2.069 -0.014,0.054 -0.194,0.665 -1.418,1.89 -1.295,1.293 -1.911,1.431 -1.917,1.432 -0.865,0.178 -1.609,0.769 -1.961,1.579 -0.353,0.811 -0.307,1.745 0.155,2.498 0.126,0.208 0.271,0.404 0.443,0.603 0.891,1.03 12.085,13.418 13.407,14.741 0.833,0.832 1.95,1.272 3.232,1.272 2.273,0 4.826,-1.466 6.173,-2.914 1.97,-2.114 4.095,-6.475 1.401,-9.169 C 68.423,57.416 56.255,46.421 55.021,45.346 54.788,45.137 54.532,44.954 54.24,44.79 53.83,44.559 53.371,44.442 52.912,44.442 l 0,0 z"
       id="path3083"
       style="fill:#ffffff;fill-opacity:1" /></g><g
     id="g3085"
     style="fill:#ffffff;fill-opacity:1"><path
       d="m 30.837,55.142 c -6.546,0 -12.701,-2.549 -17.331,-7.178 -9.552,-9.555 -9.552,-25.101 0,-34.656 4.63,-4.629 10.784,-7.179 17.33,-7.179 6.546,0 12.7,2.549 17.328,7.179 7.739,7.738 9.397,19.591 4.168,29.106 0.359,0.723 0.618,1.803 0.198,3.222 -0.386,1.296 -1.296,2.671 -2.705,4.089 -1.416,1.411 -2.793,2.324 -4.096,2.717 -0.498,0.15 -0.99,0.226 -1.465,0.226 -0.765,0 -1.38,-0.19 -1.848,-0.425 -3.545,1.899 -7.53,2.899 -11.579,2.899 z M 30.835,12.347 c -4.894,0 -9.49,1.899 -12.941,5.349 -7.132,7.133 -7.132,18.743 0,25.882 3.45,3.449 8.046,5.349 12.94,5.349 4.895,0 9.49,-1.899 12.941,-5.349 3.451,-3.45 5.352,-8.044 5.352,-12.938 0,-4.895 -1.9,-9.491 -5.352,-12.944 -3.45,-3.45 -8.046,-5.349 -12.94,-5.349 z"
       id="path3087"
       style="fill:#ffffff;fill-opacity:1" /><path
       d="m 30.835,7.485 c 5.925,0 11.849,2.26 16.37,6.781 7.648,7.648 8.828,19.313 3.536,28.198 0.32,0.348 0.938,1.267 0.488,2.787 -0.279,0.939 -0.96,2.104 -2.366,3.518 -1.411,1.406 -2.582,2.091 -3.526,2.376 -0.398,0.12 -0.756,0.168 -1.073,0.168 -0.958,0 -1.55,-0.438 -1.787,-0.656 -3.587,2.087 -7.613,3.13 -11.639,3.13 -5.925,0 -11.851,-2.26 -16.373,-6.78 -9.039,-9.042 -9.039,-23.698 0,-32.74 4.521,-4.522 10.446,-6.782 16.37,-6.782 m 0,42.796 c 5.034,0 10.067,-1.916 13.899,-5.746 7.665,-7.661 7.665,-20.131 0,-27.798 -3.832,-3.831 -8.866,-5.746 -13.899,-5.746 -5.033,0 -10.067,1.915 -13.899,5.746 -7.661,7.662 -7.661,20.131 0,27.798 3.832,3.83 8.866,5.746 13.899,5.746 m 0,-45.507 c -6.907,0 -13.402,2.69 -18.288,7.575 -10.08,10.083 -10.08,26.489 0,36.572 4.887,4.885 11.382,7.575 18.29,7.575 4.055,0 8.049,-0.951 11.644,-2.762 0.507,0.172 1.102,0.287 1.782,0.287 0.606,0 1.23,-0.095 1.854,-0.282 1.543,-0.466 3.065,-1.464 4.659,-3.052 1.601,-1.609 2.596,-3.132 3.051,-4.665 0.36,-1.218 0.35,-2.442 -0.004,-3.527 C 58.97,32.554 57.135,20.361 49.121,12.349 44.237,7.464 37.743,4.774 30.835,4.774 l 0,0 z m 0,42.796 c -4.533,0 -8.789,-1.759 -11.983,-4.952 -6.604,-6.609 -6.604,-17.36 0,-23.965 3.194,-3.193 7.45,-4.952 11.983,-4.952 4.532,0 8.788,1.759 11.983,4.952 3.194,3.196 4.954,7.452 4.954,11.985 0,4.532 -1.759,8.786 -4.954,11.979 -3.195,3.193 -7.45,4.953 -11.983,4.953 l 0,0 z"
       id="path3089"
       style="fill:#ffffff;fill-opacity:1" /></g></svg>