<?xml version="1.0" encoding="utf-8"?>
<!-- Generator: Adobe Illustrator 18.1.0, SVG Export Plug-In . SVG Version: 6.00 Build 0)  -->
<!DOCTYPE svg PUBLIC "-//W3C//DTD SVG 1.1//EN" "http://www.w3.org/Graphics/SVG/1.1/DTD/svg11.dtd">
<svg version="1.1" id="Layer_1" xmlns="http://www.w3.org/2000/svg" xmlns:xlink="http://www.w3.org/1999/xlink" x="0px" y="0px"
	 viewBox="-934 936 130 130" enable-background="new -934 936 130 130" xml:space="preserve">
<g>
	<g>
		<path fill="#FD9725" d="M-805,952v98.1c0,7.7-6.2,14-14,14H-918c-7.7,0-14-6.2-14-14V952c0-7.7,6.2-14,14-14h99.1
			C-811.2,938-805,944.2-805,952z"/>
	</g>
	<polygon fill="#E58D2A" points="-832.5,1063.9 -895.3,1001.5 -908.2,1046.7 -890.9,1064 	"/>
	<polygon fill="#E58D2A" points="-805,977.2 -818.7,963.6 -840.7,987 -805,1022.7 	"/>
	<path fill="#E58D2A" d="M-805,1032.6v17.5c0,7.7-6.2,14-14,14h-13.7l-40.5-40l29.7-29.9L-805,1032.6z"/>
	<path fill="#FFFFFF" d="M-862.8,974.5h27.4l-4.8,4.8c-2.2,2.2-2.2,5.8,0,8l0,0c2.2,2.2,5.8,2.2,8,0l14.5-14.5l0,0l0,0
		c0,0,0.1-0.1,0.1-0.1l0,0c0,0,0.1-0.1,0.1-0.1l0,0c0,0,0.1-0.1,0.1-0.1l0,0c0,0,0.1-0.1,0.1-0.1l0,0c0,0,0.1-0.1,0.1-0.1l0,0
		c0,0,0.1-0.1,0.1-0.1l0,0c0,0,0-0.1,0.1-0.1l0,0c0,0,0.1-0.1,0.1-0.1l0,0c0,0,0.1-0.1,0.1-0.1l0,0c0,0,0-0.1,0.1-0.1l0,0
		c0,0,0-0.1,0.1-0.1l0,0c0-0.1,0-0.1,0.1-0.1h0c0,0,0-0.1,0.1-0.1l0,0c0,0,0-0.1,0.1-0.1l0,0c0,0,0-0.1,0.1-0.1l0,0c0,0,0-0.1,0-0.1
		l0,0c0,0,0-0.1,0.1-0.1l0,0c0,0,0-0.1,0-0.1l0,0c0,0,0-0.1,0.1-0.1l0,0c0,0,0-0.1,0-0.1l0,0c0,0,0-0.1,0-0.1l0,0c0,0,0-0.1,0-0.1
		l0,0c0,0,0-0.1,0-0.1l0,0c0,0,0-0.1,0-0.1l0,0c0,0,0-0.1,0-0.1l0,0c0-0.1,0-0.1,0-0.1l0,0c0-0.1,0-0.1,0-0.1l0,0c0-0.1,0-0.1,0-0.1
		l0,0c0-0.1,0-0.1,0-0.1l0,0c0-0.1,0-0.1,0-0.1l0,0c0-0.1,0-0.1,0-0.1l0,0c0,0,0-0.1,0-0.1c0,0,0-0.1,0-0.1l0,0c0,0,0-0.1,0-0.1l0,0
		c0,0,0-0.1,0-0.1l0,0c0,0,0-0.1,0-0.1l0,0c0,0,0-0.1,0-0.1l0,0c0,0,0-0.1,0-0.1l0,0c0,0,0-0.1,0-0.1l0,0c0,0,0-0.1,0-0.1l0,0
		c0,0,0-0.1,0-0.1l0,0c0,0,0-0.1,0-0.1l0,0c0-0.1,0-0.1,0-0.1l0,0c0-0.1,0-0.1,0-0.1l0,0c0,0,0-0.1,0-0.1l0,0c0,0,0-0.1-0.1-0.1l0,0
		c0-0.1,0-0.1,0-0.1l0,0c0,0,0-0.1-0.1-0.1l0,0c0,0,0-0.1,0-0.1l0,0c0,0,0-0.1-0.1-0.1l0,0c0,0,0-0.1-0.1-0.1l0,0c0,0,0-0.1-0.1-0.1
		h0c0,0,0-0.1-0.1-0.1l0,0c0,0,0-0.1-0.1-0.1l0,0c0,0-0.1-0.1-0.1-0.1l0,0c0,0-0.1-0.1-0.1-0.1l0,0c0,0-0.1-0.1-0.1-0.1l0,0
		c0,0-0.1-0.1-0.1-0.1l0,0c0,0-0.1-0.1-0.1-0.1l0,0c0,0-0.1-0.1-0.1-0.1l0,0c0,0-0.1-0.1-0.1-0.1l0,0c0,0-0.1-0.1-0.1-0.1l0,0
		c0,0-0.1-0.1-0.1-0.1l0,0c0,0-0.1-0.1-0.1-0.1l0,0l-14.5-14.5c-2.2-2.2-5.8-2.2-8,0l0,0c-2.2,2.2-2.2,5.8,0,8l4.8,4.8h-27.4
		c-3.1,0-5.7,2.6-5.7,5.7l0,0C-868.5,972-865.9,974.5-862.8,974.5L-862.8,974.5z"/>
	<path fill="#FFFFFF" d="M-880.7,994.2l19.4,19.4l-6.8,0c-3.1,0-5.7,2.6-5.7,5.7l0,0c0,3.1,2.6,5.7,5.7,5.7h20.6l0,0l0,0
		c0,0,0.1,0,0.1,0l0,0c0.1,0,0.1,0,0.1,0l0,0c0.1,0,0.1,0,0.2,0l0,0c0.1,0,0.1,0,0.2,0l0,0c0,0,0.1,0,0.1,0l0,0c0.1,0,0.1,0,0.2,0
		l0,0c0,0,0.1,0,0.1,0l0,0c0,0,0.1,0,0.1,0l0,0c0,0,0.1,0,0.1,0l0,0c0,0,0.1,0,0.1,0l0,0c0,0,0.1,0,0.1,0l0,0c0.1,0,0.1,0,0.1-0.1
		l0,0c0,0,0.1,0,0.1,0l0,0c0,0,0.1,0,0.1-0.1l0,0c0,0,0.1,0,0.1,0l0,0c0,0,0.1,0,0.1-0.1l0,0c0,0,0.1,0,0.1,0l0,0c0,0,0.1,0,0.1-0.1
		l0,0c0,0,0.1,0,0.1-0.1l0,0c0,0,0.1,0,0.1-0.1l0,0c0,0,0.1-0.1,0.1-0.1l0,0c0,0,0.1-0.1,0.1-0.1l0,0c0,0,0.1,0,0.1-0.1l0,0
		c0,0,0.1,0,0.1-0.1l0,0c0,0,0.1,0,0.1-0.1l0,0c0,0,0.1-0.1,0.1-0.1l0,0c0,0,0.1-0.1,0.1-0.1l0,0c0,0,0.1-0.1,0.1-0.1l0,0
		c0.1,0,0.1-0.1,0.1-0.1l0,0c0,0,0.1-0.1,0.1-0.1l0,0c0,0,0.1-0.1,0.1-0.1l0,0c0,0,0.1-0.1,0.1-0.1c0,0,0.1-0.1,0.1-0.1l0,0
		c0,0,0.1-0.1,0.1-0.1l0,0c0,0,0.1-0.1,0.1-0.1l0,0c0,0,0.1-0.1,0.1-0.1l0,0c0,0,0.1-0.1,0.1-0.1l0,0c0,0,0.1-0.1,0.1-0.1l0,0
		c0,0,0.1-0.1,0.1-0.1l0,0c0,0,0-0.1,0.1-0.1l0,0c0,0,0-0.1,0.1-0.1l0,0c0,0,0-0.1,0.1-0.1l0,0c0,0,0.1-0.1,0.1-0.1l0,0
		c0-0.1,0-0.1,0.1-0.1l0,0c0,0,0-0.1,0.1-0.1l0,0c0,0,0-0.1,0-0.1l0,0c0,0,0.1-0.1,0.1-0.1l0,0c0,0,0-0.1,0.1-0.1l0,0
		c0,0,0-0.1,0.1-0.1l0,0c0,0,0-0.1,0.1-0.1l0,0c0,0,0-0.1,0-0.1l0,0c0,0,0-0.1,0.1-0.1l0,0c0,0,0-0.1,0-0.1l0,0c0,0,0-0.1,0-0.1l0,0
		c0-0.1,0-0.1,0-0.1l0,0c0,0,0-0.1,0-0.1l0,0c0,0,0-0.1,0-0.1l0,0c0-0.1,0-0.1,0-0.1l0,0c0-0.1,0-0.1,0-0.2l0,0c0,0,0-0.1,0-0.1l0,0
		c0-0.1,0-0.1,0-0.1l0,0c0-0.1,0-0.1,0-0.2l0,0c0-0.1,0-0.1,0-0.1l0,0c0-0.1,0-0.1,0-0.2l0,0l0-20.6c0-3.1-2.6-5.7-5.7-5.7l0,0
		c-3.1,0-5.7,2.6-5.7,5.7v6.8l-19.4-19.4c-2.2-2.2-5.8-2.2-8,0l0,0C-882.9,988.3-882.9,992-880.7,994.2L-880.7,994.2z"/>
	<path fill="#FFFFFF" d="M-906.1,1004.7v27.4l-4.8-4.8c-2.2-2.2-5.8-2.2-8,0l0,0c-2.2,2.2-2.2,5.8,0,8l14.5,14.5l0,0l0,0
		c0,0,0.1,0.1,0.1,0.1l0,0c0,0,0.1,0.1,0.1,0.1l0,0c0,0,0.1,0.1,0.1,0.1l0,0c0,0,0.1,0.1,0.1,0.1l0,0c0,0,0.1,0.1,0.1,0.1l0,0
		c0,0,0.1,0.1,0.1,0.1l0,0c0,0,0.1,0,0.1,0.1l0,0c0,0,0.1,0.1,0.1,0.1l0,0c0,0,0.1,0.1,0.1,0.1l0,0c0,0,0.1,0,0.1,0.1l0,0
		c0,0,0.1,0,0.1,0.1l0,0c0.1,0,0.1,0,0.1,0.1v0c0,0,0.1,0,0.1,0.1l0,0c0,0,0.1,0,0.1,0.1l0,0c0,0,0.1,0,0.1,0.1l0,0c0,0,0.1,0,0.1,0
		l0,0c0,0,0.1,0,0.1,0.1l0,0c0,0,0.1,0,0.1,0l0,0c0,0,0.1,0,0.1,0.1l0,0c0,0,0.1,0,0.1,0l0,0c0,0,0.1,0,0.1,0l0,0c0,0,0.1,0,0.1,0
		l0,0c0,0,0.1,0,0.1,0l0,0c0,0,0.1,0,0.1,0l0,0c0,0,0.1,0,0.1,0l0,0c0.1,0,0.1,0,0.1,0l0,0c0.1,0,0.1,0,0.1,0l0,0c0.1,0,0.1,0,0.1,0
		l0,0c0.1,0,0.1,0,0.1,0l0,0c0.1,0,0.1,0,0.1,0l0,0c0.1,0,0.1,0,0.1,0l0,0c0,0,0.1,0,0.1,0c0,0,0.1,0,0.1,0l0,0c0,0,0.1,0,0.1,0l0,0
		c0,0,0.1,0,0.1,0l0,0c0,0,0.1,0,0.1,0l0,0c0,0,0.1,0,0.1,0l0,0c0,0,0.1,0,0.1,0l0,0c0,0,0.1,0,0.1,0l0,0c0,0,0.1,0,0.1,0l0,0
		c0,0,0.1,0,0.1,0l0,0c0,0,0.1,0,0.1,0l0,0c0.1,0,0.1,0,0.1,0l0,0c0.1,0,0.1,0,0.1,0l0,0c0,0,0.1,0,0.1,0l0,0c0,0,0.1,0,0.1-0.1l0,0
		c0.1,0,0.1,0,0.1,0l0,0c0,0,0.1,0,0.1-0.1l0,0c0,0,0.1,0,0.1,0l0,0c0,0,0.1,0,0.1-0.1l0,0c0,0,0.1,0,0.1-0.1l0,0c0,0,0.1,0,0.1-0.1
		v0c0,0,0.1,0,0.1-0.1l0,0c0,0,0.1,0,0.1-0.1l0,0c0,0,0.1-0.1,0.1-0.1l0,0c0,0,0.1-0.1,0.1-0.1l0,0c0,0,0.1-0.1,0.1-0.1l0,0
		c0,0,0.1-0.1,0.1-0.1l0,0c0,0,0.1-0.1,0.1-0.1l0,0c0,0,0.1-0.1,0.1-0.1l0,0c0,0,0.1-0.1,0.1-0.1l0,0c0,0,0.1-0.1,0.1-0.1l0,0
		c0,0,0.1-0.1,0.1-0.1l0,0c0,0,0.1-0.1,0.1-0.1l0,0l14.5-14.5c2.2-2.2,2.2-5.8,0-8l0,0c-2.2-2.2-5.8-2.2-8,0l-4.8,4.8v-27.4
		c0-3.1-2.6-5.7-5.7-5.7l0,0C-903.5,999-906.1,1001.5-906.1,1004.7L-906.1,1004.7z"/>
</g>
</svg>
