<?xml version="1.0" encoding="utf-8"?>
<!-- Generator: Adobe Illustrator 18.1.0, SVG Export Plug-In . SVG Version: 6.00 Build 0)  -->
<!DOCTYPE svg PUBLIC "-//W3C//DTD SVG 1.1//EN" "http://www.w3.org/Graphics/SVG/1.1/DTD/svg11.dtd">
<svg version="1.1" id="Layer_1" xmlns="http://www.w3.org/2000/svg" xmlns:xlink="http://www.w3.org/1999/xlink" x="0px" y="0px"
	 viewBox="0 0 106 106" enable-background="new 0 0 106 106" xml:space="preserve">
<g>
	<path fill="#C13333" d="M104.4,65.8c-2.2,9.1-6.9,17.6-14,24.7c-0.3,0.3-0.6,0.6-0.9,0.9c-2.6,2.5-5.5,4.7-8.5,6.6
		c-5.1,3.2-10.6,5.4-16.3,6.7c-13.4,3.1-27.8,0.8-39.8-6.7c-3-1.8-5.8-4-8.4-6.5c-0.3-0.3-0.7-0.6-1-1c-20.7-20.7-20.7-54.3,0-75
		c20.7-20.7,54.3-20.7,75,0C104.1,29.1,108.8,48.3,104.4,65.8z"/>
	<path opacity="0.79" fill="#A82D2D" d="M104.4,65.8c-2.2,9.1-6.9,17.6-14,24.7c-0.3,0.3-0.6,0.6-0.9,0.9c-2.6,2.5-5.5,4.7-8.5,6.6
		c-5.1,3.2-10.6,5.4-16.3,6.7L18.2,58.1l1.1-3.7L87.7,49L104.4,65.8z"/>
	<g>
		<path fill="#F2F2F2" d="M83,60H23c-3.6,0-6.5-2.9-6.5-6.5S19.4,47,23,47h60c3.6,0,6.5,2.9,6.5,6.5S86.6,60,83,60z"/>
	</g>
</g>
</svg>
