<?xml version="1.0" encoding="utf-8"?>
<!-- Generator: Adobe Illustrator 18.1.0, SVG Export Plug-In . SVG Version: 6.00 Build 0)  -->
<!DOCTYPE svg PUBLIC "-//W3C//DTD SVG 1.1//EN" "http://www.w3.org/Graphics/SVG/1.1/DTD/svg11.dtd">
<svg version="1.1" id="Layer_1" xmlns="http://www.w3.org/2000/svg" xmlns:xlink="http://www.w3.org/1999/xlink" x="0px" y="0px"
	 viewBox="0 0 106 106" enable-background="new 0 0 106 106" xml:space="preserve">
<g>
	<path fill="#4CAF50" d="M106,53c0,4.1-0.5,8.1-1.3,11.9c-4.5,19.7-20,35.2-39.7,39.7c-3.8,0.9-7.8,1.4-11.9,1.4
		C23.7,106,0,82.3,0,53C0,23.7,23.7,0,53,0S106,23.7,106,53z"/>
	<path fill="#52A052" d="M104.7,64.9c-4.5,19.7-20,35.2-39.7,39.7L18.1,57.8l22.9-3l13.1-13.1l3.7-23.6L104.7,64.9z"/>
	<g>
		<path fill="#F2F2F2" d="M53.5,89.5c-3.6,0-6.5-2.9-6.5-6.5V23c0-3.6,2.9-6.5,6.5-6.5S60,19.4,60,23v60
			C60,86.6,57.1,89.5,53.5,89.5z"/>
		<path fill="#F2F2F2" d="M83,60H23c-3.6,0-6.5-2.9-6.5-6.5S19.4,47,23,47h60c3.6,0,6.5,2.9,6.5,6.5S86.6,60,83,60z"/>
	</g>
</g>
</svg>
