<?xml version="1.0" encoding="UTF-8" standalone="no"?>
<svg
   xmlns:dc="http://purl.org/dc/elements/1.1/"
   xmlns:cc="http://creativecommons.org/ns#"
   xmlns:rdf="http://www.w3.org/1999/02/22-rdf-syntax-ns#"
   xmlns:svg="http://www.w3.org/2000/svg"
   xmlns="http://www.w3.org/2000/svg"
   id="svg4316"
   xml:space="preserve"
   enable-background="new 0 0 100 100"
   viewBox="0 0 100 125"
   y="0px"
   x="0px"
   version="1.1"><metadata
     id="metadata4380"><rdf:RDF><cc:Work
         rdf:about=""><dc:format>image/svg+xml</dc:format><dc:type
           rdf:resource="http://purl.org/dc/dcmitype/StillImage" /><dc:title></dc:title></cc:Work></rdf:RDF></metadata><defs
     id="defs4378" /><g
     transform="matrix(1.3804452,0,0,1.3804452,-21.75323,-3.0995839)"
     id="g4318"><g
       id="g4320"><g
         id="g4322"><g
           id="g4324"><path
             style="fill:#000000"
             id="path4326"
             d="m 42.904,21.062 c 0.097,0 0.175,-0.088 0.175,-0.195 l 0,-0.187 c 0,-0.107 -0.078,-0.196 -0.175,-0.196 l -2.766,0 c -0.1,0 -0.181,0.088 -0.181,0.196 l 0,0.187 c 0,0.108 0.081,0.195 0.181,0.195 l 2.766,0 z" /></g></g><g
         id="g4328"><g
           id="g4330"><path
             style="fill:#000000"
             id="path4332"
             d="m 42.904,20.26 c 0.097,0 0.175,-0.086 0.175,-0.193 l 0,-0.187 c 0,-0.107 -0.078,-0.195 -0.175,-0.195 l -2.766,0 c -0.1,0 -0.181,0.088 -0.181,0.195 l 0,0.187 c 0,0.107 0.081,0.193 0.181,0.193 l 2.766,0 z" /></g></g><g
         id="g4334"><g
           id="g4336"><path
             style="fill:#000000"
             id="path4338"
             d="m 42.432,21.285 c -0.168,0.333 -0.512,0.566 -0.906,0.566 -0.398,0 -0.748,-0.236 -0.92,-0.566 l 1.826,0 0,0 z" /></g></g><g
         id="g4340"><path
           style="fill:#000000"
           id="path4342"
           d="m 41.52,10.415 c -2.129,0 -3.855,1.728 -3.855,3.856 0,0.703 0.193,1.354 0.513,1.927 0.948,1.706 1.2,1.379 1.353,2.307 0.13,0.776 0.313,0.957 0.897,0.957 0.248,0 0.66,0 1.095,0 0.434,0 0.844,0 1.092,0 0.59,0 0.77,-0.181 0.896,-0.957 0.156,-0.929 0.409,-0.6 1.354,-2.307 0.318,-0.571 0.517,-1.223 0.517,-1.927 -0.005,-2.128 -1.734,-3.856 -3.862,-3.856 z" /></g></g><g
       id="g4344"><path
         style="fill:#000000"
         id="path4346"
         d="m 41.521,8.157 c -0.424,0 -0.771,-0.345 -0.771,-0.771 l 0,-3.031 c 0,-0.425 0.347,-0.771 0.771,-0.771 0.428,0 0.771,0.347 0.771,0.771 l 0,3.029 c 0,0.429 -0.345,0.773 -0.771,0.773 z" /></g><g
       id="g4348"><path
         style="fill:#000000"
         id="path4350"
         d="m 36.422,10.265 c -0.197,0 -0.396,-0.075 -0.546,-0.226 L 33.732,7.895 c -0.301,-0.3 -0.301,-0.79 0,-1.09 0.302,-0.302 0.789,-0.302 1.092,0 l 2.142,2.143 c 0.302,0.3 0.302,0.79 0,1.091 -0.15,0.15 -0.346,0.226 -0.544,0.226 z" /></g><g
       id="g4352"><path
         style="fill:#000000"
         id="path4354"
         d="m 46.617,10.265 c -0.197,0 -0.395,-0.075 -0.547,-0.226 -0.301,-0.301 -0.301,-0.791 0,-1.091 l 2.147,-2.142 c 0.3,-0.302 0.787,-0.302 1.089,0 0.301,0.301 0.301,0.79 0,1.09 l -2.145,2.144 c -0.15,0.149 -0.348,0.225 -0.544,0.225 z" /></g><g
       id="g4356"><path
         style="fill:#000000"
         id="path4358"
         d="m 50.746,14.894 -3.029,0 c -0.426,0 -0.771,-0.348 -0.771,-0.772 0,-0.424 0.347,-0.771 0.771,-0.771 l 3.029,0 c 0.427,0 0.773,0.346 0.773,0.771 0,0.425 -0.344,0.772 -0.773,0.772 z" /></g><g
       id="g4360"><path
         style="fill:#000000"
         id="path4362"
         d="m 35.32,14.894 -3.03,0 c -0.427,0 -0.771,-0.348 -0.771,-0.772 0,-0.424 0.344,-0.771 0.771,-0.771 l 3.03,0 c 0.425,0 0.771,0.346 0.771,0.771 0.002,0.424 -0.343,0.772 -0.771,0.772 z" /></g></g><path
     d="m 76.49123,56.472951 c -0.514906,-0.298176 -1.17752,-0.121479 -1.472935,0.396188 l -8.105975,14.033606 -16.206426,0 c -0.596353,0 -1.078129,0.483156 -1.078129,1.078127 0,0.594972 0.483156,1.080889 1.078129,1.080889 l 16.829008,0 c 0.128381,0 0.254002,-0.02899 0.37272,-0.07592 0.02899,-0.01243 0.0566,-0.02347 0.08697,-0.03451 0.110436,-0.05108 0.21535,-0.115957 0.305079,-0.204307 0.0028,-0.0028 0.0055,-0.0083 0.0083,-0.01381 0.06212,-0.06212 0.12148,-0.132523 0.164274,-0.209829 l 8.417963,-14.576118 c 0.294035,-0.514906 0.115957,-1.174759 -0.398949,-1.474315 z"
     id="path4366"
     style="fill:#000000;stroke:#000000;stroke-width:1.42959976;stroke-miterlimit:4;stroke-dasharray:none;stroke-opacity:1" /><circle
     cx="35.561474"
     cy="37.545033"
     r="7.7028842"
     id="circle4368"
     style="fill:#000000" /><path
     id="path5162"
     d="m 54.675426,118.43122 -1e-6,-32.843894 -18.547141,0.1932 -0.386398,-32.264297 22.990726,11.398764"
     style="fill:none;fill-rule:evenodd;stroke:#000000;stroke-width:8.80000019;stroke-linecap:round;stroke-linejoin:round;stroke-miterlimit:4;stroke-dasharray:none;stroke-opacity:1" /></svg>