<?xml version="1.0" encoding="UTF-8" standalone="no"?>
<svg
   xmlns:dc="http://purl.org/dc/elements/1.1/"
   xmlns:cc="http://creativecommons.org/ns#"
   xmlns:rdf="http://www.w3.org/1999/02/22-rdf-syntax-ns#"
   xmlns:svg="http://www.w3.org/2000/svg"
   xmlns="http://www.w3.org/2000/svg"
   xmlns:sodipodi="http://sodipodi.sourceforge.net/DTD/sodipodi-0.dtd"
   xmlns:inkscape="http://www.inkscape.org/namespaces/inkscape"
   version="1.1"
   x="0px"
   y="0px"
   viewBox="0 0 100 125"
   enable-background="new 0 0 100 100"
   xml:space="preserve"
   id="svg4316"
   inkscape:version="0.91 r13725"
   sodipodi:docname="programmer.svg"><metadata
     id="metadata4380"><rdf:RDF><cc:Work
         rdf:about=""><dc:format>image/svg+xml</dc:format><dc:type
           rdf:resource="http://purl.org/dc/dcmitype/StillImage" /></cc:Work></rdf:RDF></metadata><defs
     id="defs4378" /><sodipodi:namedview
     pagecolor="#ffffff"
     bordercolor="#666666"
     borderopacity="1"
     objecttolerance="10"
     gridtolerance="10"
     guidetolerance="10"
     inkscape:pageopacity="0"
     inkscape:pageshadow="2"
     inkscape:window-width="1600"
     inkscape:window-height="836"
     id="namedview4376"
     showgrid="false"
     inkscape:zoom="5.176"
     inkscape:cx="42.272025"
     inkscape:cy="67.150019"
     inkscape:window-x="0"
     inkscape:window-y="27"
     inkscape:window-maximized="1"
     inkscape:current-layer="svg4316" /><g
     id="g4318"
     transform="matrix(1.3804452,0,0,1.3804452,-21.75323,-3.0995839)"><g
       id="g4320"><g
         id="g4322"><g
           id="g4324"><path
             d="m 42.904,21.062 c 0.097,0 0.175,-0.088 0.175,-0.195 l 0,-0.187 c 0,-0.107 -0.078,-0.196 -0.175,-0.196 l -2.766,0 c -0.1,0 -0.181,0.088 -0.181,0.196 l 0,0.187 c 0,0.108 0.081,0.195 0.181,0.195 l 2.766,0 z"
             id="path4326"
             inkscape:connector-curvature="0"
             style="fill:#000000" /></g></g><g
         id="g4328"><g
           id="g4330"><path
             d="m 42.904,20.26 c 0.097,0 0.175,-0.086 0.175,-0.193 l 0,-0.187 c 0,-0.107 -0.078,-0.195 -0.175,-0.195 l -2.766,0 c -0.1,0 -0.181,0.088 -0.181,0.195 l 0,0.187 c 0,0.107 0.081,0.193 0.181,0.193 l 2.766,0 z"
             id="path4332"
             inkscape:connector-curvature="0"
             style="fill:#000000" /></g></g><g
         id="g4334"><g
           id="g4336"><path
             d="m 42.432,21.285 c -0.168,0.333 -0.512,0.566 -0.906,0.566 -0.398,0 -0.748,-0.236 -0.92,-0.566 l 1.826,0 0,0 z"
             id="path4338"
             inkscape:connector-curvature="0"
             style="fill:#000000" /></g></g><g
         id="g4340"><path
           d="m 41.52,10.415 c -2.129,0 -3.855,1.728 -3.855,3.856 0,0.703 0.193,1.354 0.513,1.927 0.948,1.706 1.2,1.379 1.353,2.307 0.13,0.776 0.313,0.957 0.897,0.957 0.248,0 0.66,0 1.095,0 0.434,0 0.844,0 1.092,0 0.59,0 0.77,-0.181 0.896,-0.957 0.156,-0.929 0.409,-0.6 1.354,-2.307 0.318,-0.571 0.517,-1.223 0.517,-1.927 -0.005,-2.128 -1.734,-3.856 -3.862,-3.856 z"
           id="path4342"
           inkscape:connector-curvature="0"
           style="fill:#000000" /></g></g><g
       id="g4344"><path
         d="m 41.521,8.157 c -0.424,0 -0.771,-0.345 -0.771,-0.771 l 0,-3.031 c 0,-0.425 0.347,-0.771 0.771,-0.771 0.428,0 0.771,0.347 0.771,0.771 l 0,3.029 c 0,0.429 -0.345,0.773 -0.771,0.773 z"
         id="path4346"
         inkscape:connector-curvature="0"
         style="fill:#000000" /></g><g
       id="g4348"><path
         d="m 36.422,10.265 c -0.197,0 -0.396,-0.075 -0.546,-0.226 L 33.732,7.895 c -0.301,-0.3 -0.301,-0.79 0,-1.09 0.302,-0.302 0.789,-0.302 1.092,0 l 2.142,2.143 c 0.302,0.3 0.302,0.79 0,1.091 -0.15,0.15 -0.346,0.226 -0.544,0.226 z"
         id="path4350"
         inkscape:connector-curvature="0"
         style="fill:#000000" /></g><g
       id="g4352"><path
         d="m 46.617,10.265 c -0.197,0 -0.395,-0.075 -0.547,-0.226 -0.301,-0.301 -0.301,-0.791 0,-1.091 l 2.147,-2.142 c 0.3,-0.302 0.787,-0.302 1.089,0 0.301,0.301 0.301,0.79 0,1.09 l -2.145,2.144 c -0.15,0.149 -0.348,0.225 -0.544,0.225 z"
         id="path4354"
         inkscape:connector-curvature="0"
         style="fill:#000000" /></g><g
       id="g4356"><path
         d="m 50.746,14.894 -3.029,0 c -0.426,0 -0.771,-0.348 -0.771,-0.772 0,-0.424 0.347,-0.771 0.771,-0.771 l 3.029,0 c 0.427,0 0.773,0.346 0.773,0.771 0,0.425 -0.344,0.772 -0.773,0.772 z"
         id="path4358"
         inkscape:connector-curvature="0"
         style="fill:#000000" /></g><g
       id="g4360"><path
         d="m 35.32,14.894 -3.03,0 c -0.427,0 -0.771,-0.348 -0.771,-0.772 0,-0.424 0.344,-0.771 0.771,-0.771 l 3.03,0 c 0.425,0 0.771,0.346 0.771,0.771 0.002,0.424 -0.343,0.772 -0.771,0.772 z"
         id="path4362"
         inkscape:connector-curvature="0"
         style="fill:#000000" /></g></g><path
     style="fill:#000000;stroke:#000000;stroke-width:1.42959976;stroke-miterlimit:4;stroke-dasharray:none;stroke-opacity:1"
     inkscape:connector-curvature="0"
     id="path4366"
     d="m 70.888448,62.655331 c -0.514906,-0.298176 -1.17752,-0.121479 -1.472935,0.396188 l -8.105975,14.033606 -16.206426,0 c -0.596353,0 -1.078129,0.483156 -1.078129,1.078127 0,0.594972 0.483156,1.080889 1.078129,1.080889 l 16.829008,0 c 0.128381,0 0.254002,-0.02899 0.37272,-0.07592 0.02899,-0.01243 0.0566,-0.02347 0.08697,-0.03451 0.110436,-0.05108 0.21535,-0.115957 0.305079,-0.204307 0.0028,-0.0028 0.0055,-0.0083 0.0083,-0.01381 0.06212,-0.06212 0.12148,-0.132523 0.164274,-0.209829 l 8.417963,-14.576118 c 0.294035,-0.514906 0.115957,-1.174759 -0.398949,-1.474315 z" /><circle
     style="fill:#000000"
     id="circle4368"
     r="7.7028842"
     cy="37.545033"
     cx="35.561474" /><path
     style="fill:#000000"
     inkscape:connector-curvature="0"
     id="path4370"
     d="m 54.644749,81.196091 c -0.15323,0 -0.299556,0.02899 -0.450025,0.04555 l -13.821018,0 0,-15.980033 8.111496,8.110115 c 1.878786,1.877406 4.924048,1.877406 6.804215,0 1.880166,-1.878786 1.880166,-4.925429 0,-6.806975 L 38.964272,50.240987 c -0.01381,-0.01243 -0.02761,-0.01933 -0.03865,-0.03037 -0.213969,-0.208447 -0.444503,-0.400329 -0.694364,-0.567363 -0.12424,-0.08145 -0.258143,-0.139425 -0.385144,-0.207067 -0.146328,-0.08145 -0.287133,-0.169794 -0.441743,-0.234676 -0.162892,-0.06626 -0.332687,-0.106294 -0.499721,-0.154609 -0.133903,-0.03727 -0.260904,-0.08973 -0.398949,-0.118719 -0.622581,-0.122859 -1.264487,-0.122859 -1.885688,0 -0.138044,0.02899 -0.266425,0.08145 -0.400329,0.118719 -0.167033,0.0497 -0.335448,0.08835 -0.49696,0.154609 -0.157371,0.06488 -0.299557,0.15461 -0.447264,0.234676 -0.127002,0.0704 -0.259524,0.127001 -0.379623,0.207067 -0.262285,0.175316 -0.508003,0.3741 -0.730255,0.597733 -0.0014,0 -0.0028,0 -0.0028,0.0014 -0.223632,0.223632 -0.423797,0.470732 -0.600494,0.734397 -0.08007,0.118719 -0.135283,0.248481 -0.201545,0.37272 -0.08282,0.150468 -0.173936,0.295415 -0.240197,0.455547 -0.06626,0.158752 -0.103534,0.325785 -0.151849,0.490059 -0.03865,0.136663 -0.0925,0.266425 -0.12148,0.40723 -0.06074,0.310601 -0.09387,0.625342 -0.09387,0.941464 0,0.0014 0,0.0014 0,0.0014 l 0,32.334169 c 0,0.01104 0.0042,0.02484 0.0042,0.03727 0,0.01104 -0.0042,0.02761 -0.0042,0.03589 0,2.658738 2.154874,4.810852 4.810851,4.810852 l 14.272423,0 0,27.47638 c 0,2.65874 2.153495,4.81224 4.809472,4.81224 2.658737,0 4.812232,-2.15488 4.812232,-4.81224 l 0,-32.330025 c -0.0014,-2.658738 -2.154876,-4.813613 -4.813613,-4.813613 z" /></svg>