<?xml version="1.0" encoding="UTF-8" standalone="no"?>
<!-- Created with Inkscape (http://www.inkscape.org/) -->

<svg
   xmlns:dc="http://purl.org/dc/elements/1.1/"
   xmlns:cc="http://creativecommons.org/ns#"
   xmlns:rdf="http://www.w3.org/1999/02/22-rdf-syntax-ns#"
   xmlns:svg="http://www.w3.org/2000/svg"
   xmlns="http://www.w3.org/2000/svg"
   version="1.1"
   width="75"
   height="75"
   viewBox="0 0 75 75"
   id="Layer_1"
   xml:space="preserve"><metadata
     id="metadata3104"><rdf:RDF><cc:Work
         rdf:about=""><dc:format>image/svg+xml</dc:format><dc:type
           rdf:resource="http://purl.org/dc/dcmitype/StillImage" /><dc:title></dc:title></cc:Work></rdf:RDF></metadata><defs
     id="defs3102" /><g
     transform="translate(2.25,16.85)"
     id="g3"><path
       d="m 15.5,0 h 6.2 L 37.2,40.6 H 31.5 L 27.8,30.2 H 9.5 L 5.8,40.6 H 0 L 15.5,0 z m 3.1,5.4 -7.4,20.2 H 26.1 L 18.6,5.4 z"
       id="path5"
       style="fill:#ffffff" /><path
       d="m 65.5,10.1 h 5 v 30.4 h -5 V 36 c -1.1,1.8 -2.4,3.2 -4,4 -1.6,0.9 -3.5,1.3 -5.8,1.3 -3.7,0 -6.7,-1.5 -9,-4.4 -2.3,-2.9 -3.5,-6.8 -3.5,-11.6 0,-4.8 1.2,-8.6 3.5,-11.6 2.3,-2.9 5.3,-4.4 9,-4.4 2.3,0 4.2,0.4 5.8,1.3 1.6,0.9 2.9,2.2 4,4 v -4.5 z m -17,15.3 c 0,3.7 0.8,6.6 2.3,8.7 1.5,2.1 3.6,3.1 6.3,3.1 2.7,0 4.7,-1 6.3,-3.1 1.5,-2.1 2.3,-5 2.3,-8.7 0,-3.7 -0.8,-6.5 -2.3,-8.6 -1.5,-2.1 -3.6,-3.2 -6.3,-3.2 -2.7,0 -4.7,1.1 -6.3,3.2 -1.6,2 -2.3,4.9 -2.3,8.6 z"
       id="path7"
       style="fill:#ffffff" /></g></svg>
