<?xml version="1.0" encoding="utf-8"?>
<!-- Generator: Adobe Illustrator 18.1.0, SVG Export Plug-In . SVG Version: 6.00 Build 0)  -->
<!DOCTYPE svg PUBLIC "-//W3C//DTD SVG 1.1//EN" "http://www.w3.org/Graphics/SVG/1.1/DTD/svg11.dtd">
<svg version="1.1" id="Layer_1" xmlns="http://www.w3.org/2000/svg"
xmlns:xlink="http://www.w3.org/1999/xlink" x="0px" y="0px" width="46" height="44"
	 viewBox="0 0 46 44"
    enable-background="new 0 0 46 44" xml:space="preserve">
<g id="rounded_arrow">
	<g>
		<line fill="#3f3f3f" x1="43" y1="22" x2="3" y2="22"/>
		<path fill="#3f3f3f" d="M43,25H3c-1.7,0-3-1.3-3-3s1.3-3,3-3h40c1.7,0,3,1.3,3,3S44.7,25,43,25z"/>
	</g>
	<g>
		<line fill="#3f3f3f" x1="3" y1="22" x2="22" y2="3"/>
		<path fill="#3f3f3f" d="M3,25c-0.8,0-1.5-0.3-2.1-0.9c-1.2-1.2-1.2-3.1,0-4.2l19-19c1.2-1.2,3.1-1.2,4.2,0c1.2,1.2,1.2,3.1,0,4.2
			l-19,19C4.5,24.7,3.8,25,3,25z"/>
	</g>
	<g>
		<line fill="#3f3f3f" x1="3" y1="22" x2="22" y2="41"/>
		<path fill="#3f3f3f" d="M22,44c-0.8,0-1.5-0.3-2.1-0.9l-19-19c-1.2-1.2-1.2-3.1,0-4.2c1.2-1.2,3.1-1.2,4.2,0l19,19
			c1.2,1.2,1.2,3.1,0,4.2C23.5,43.7,22.8,44,22,44z"/>
	</g>
</g>
</svg>
