<?xml version="1.0" encoding="utf-8"?>
<!-- Generator: Adobe Illustrator 18.1.0, SVG Export Plug-In . SVG Version: 6.00 Build 0)  -->
<!DOCTYPE svg PUBLIC "-//W3C//DTD SVG 1.1//EN" "http://www.w3.org/Graphics/SVG/1.1/DTD/svg11.dtd">
<svg version="1.1" id="Layer_1" xmlns="http://www.w3.org/2000/svg"
xmlns:xlink="http://www.w3.org/1999/xlink" x="0px" y="0px" width="70" height="59"

	 viewBox="0 0 69.5 58.6" enable-background="new 0 0 69.5 58.6" xml:space="preserve">
<path fill="#3f3f3f" d="M37.3,58.6V0L20.4,16.9H5.1C2.3,16.9,0,19.2,0,22v14.6c0,2.8,2.3,5.1,5.1,5.1h15.3L37.3,58.6L37.3,58.6z
	 M47.8,40.9c-0.1,0-0.1,0.1-0.2,0.1c3.6-1.4,6.3-4.1,7.7-7.4c1.5-3.3,1.7-7.2,0.3-10.8l0,0c-0.6-1.6-1.4-2.9-2.4-4.1
	c-1.1-1.2-2.3-2.3-3.7-3.1c-1.6-0.9-3.7-0.4-4.6,1.2c-0.9,1.6-0.4,3.7,1.2,4.6c0.7,0.4,1.4,1,1.9,1.6c0.5,0.6,1,1.4,1.3,2.2l0,0
	c0.7,1.9,0.6,3.9-0.1,5.7c-0.8,1.7-2.2,3.2-4.1,3.9l-0.3,0.1l0,0c-1.7,0.8-2.3,2.8-1.5,4.5c0.8,1.6,2.7,2.3,4.3,1.6l-0.1,0
	L47.8,40.9z M47.3,24.5L47.3,24.5 M53.9,50.3c-1.7,0.7-3.7-0.2-4.3-1.9c-0.7-1.7,0.2-3.7,1.9-4.3c4.1-1.6,7.1-4.3,8.9-7.6
	c1.3-2.3,2.1-4.9,2.3-7.6c0.2-2.7-0.2-5.4-1.1-7.9c-1.4-3.5-3.9-6.7-7.7-8.9c-1.6-0.9-2.2-3-1.2-4.6c0.9-1.6,3-2.2,4.6-1.2
	c5.2,3,8.7,7.4,10.6,12.3c1.3,3.4,1.8,7.1,1.6,10.7c-0.3,3.6-1.3,7.2-3.2,10.4C63.7,44.3,59.6,48.1,53.9,50.3z"/>
</svg>
