<?xml version="1.0" encoding="UTF-8" standalone="no"?>
<!-- Created with Inkscape (http://www.inkscape.org/) -->

<svg
   xmlns:dc="http://purl.org/dc/elements/1.1/"
   xmlns:cc="http://creativecommons.org/ns#"
   xmlns:rdf="http://www.w3.org/1999/02/22-rdf-syntax-ns#"
   xmlns:svg="http://www.w3.org/2000/svg"
   xmlns="http://www.w3.org/2000/svg"
   xmlns:sodipodi="http://sodipodi.sourceforge.net/DTD/sodipodi-0.dtd"
   xmlns:inkscape="http://www.inkscape.org/namespaces/inkscape"
   version="1.1"
   width="1200"
   height="466"
   viewBox="0 0 1200 466"
   id="Layer_1"
   xml:space="preserve"
   inkscape:version="0.91 r13725"
   sodipodi:docname="big-letter-clouds.svg"><sodipodi:namedview
     pagecolor="#ffffff"
     bordercolor="#666666"
     borderopacity="1"
     objecttolerance="10"
     gridtolerance="10"
     guidetolerance="10"
     inkscape:pageopacity="0"
     inkscape:pageshadow="2"
     inkscape:window-width="1920"
     inkscape:window-height="1041"
     id="namedview7657"
     showgrid="false"
     inkscape:zoom="1.4203387"
     inkscape:cx="-78.649064"
     inkscape:cy="312.864"
     inkscape:window-x="1600"
     inkscape:window-y="0"
     inkscape:window-maximized="1"
     inkscape:current-layer="Layer_1" /><metadata
     id="metadata3471"><rdf:RDF><cc:Work
         rdf:about=""><dc:format>image/svg+xml</dc:format><dc:type
           rdf:resource="http://purl.org/dc/dcmitype/StillImage" /><dc:title></dc:title></cc:Work></rdf:RDF></metadata><defs
     id="defs3469"><linearGradient
       gradientUnits="userSpaceOnUse"
       id="SVGID_1_"
       y2="1153.6013"
       x2="775.37677"
       y1="930.6012"
       x1="706.37659"
       gradientTransform="translate(-392.36672,-768.79199)"><stop
         offset="0"
         style="stop-color:#ffffff;stop-opacity:1"
         id="stop6" /><stop
         offset="1"
         style="stop-color:#aecfee;stop-opacity:1"
         id="stop8" /></linearGradient><linearGradient
       gradientTransform="matrix(0.9355,-0.3533,0.3533,0.9355,-736.77092,-216.38219)"
       gradientUnits="userSpaceOnUse"
       id="SVGID_2_"
       y2="763.50861"
       x2="1475.3727"
       y1="1145.7023"
       x1="1475.3727"><stop
         offset="0"
         style="stop-color:#aecfee;stop-opacity:1"
         id="stop13" /><stop
         offset="0.09080452"
         style="stop-color:#b6d4f0;stop-opacity:1"
         id="stop15" /><stop
         offset="0.70139998"
         style="stop-color:#ebf3fb;stop-opacity:1"
         id="stop17" /><stop
         offset="1"
         style="stop-color:#ffffff;stop-opacity:1"
         id="stop19" /></linearGradient><linearGradient
       gradientTransform="matrix(0.9998,-0.0177,0.0177,0.9998,-398.82792,-651.77259)"
       gradientUnits="userSpaceOnUse"
       id="SVGID_3_"
       y2="767.67078"
       x2="587.82483"
       y1="998.69531"
       x1="587.82483"><stop
         offset="0"
         style="stop-color:#aecfee;stop-opacity:1"
         id="stop24" /><stop
         offset="0.3071"
         style="stop-color:#cbe0f4;stop-opacity:1"
         id="stop26" /><stop
         offset="0.76069999"
         style="stop-color:#f1f6fc;stop-opacity:1"
         id="stop28" /><stop
         offset="1"
         style="stop-color:#ffffff;stop-opacity:1"
         id="stop30" /></linearGradient><linearGradient
       gradientTransform="matrix(-1,0,0,1,1564.6333,-768.79199)"
       gradientUnits="userSpaceOnUse"
       id="SVGID_4_"
       y2="939.40509"
       x2="949.13483"
       y1="1235.3363"
       x1="949.13483"><stop
         offset="0"
         style="stop-color:#d2e3f5;stop-opacity:1"
         id="stop3425" /><stop
         offset="0.1462"
         style="stop-color:#e0ecf8;stop-opacity:1"
         id="stop3427" /><stop
         offset="0.40220001"
         style="stop-color:#f1f6fc;stop-opacity:1"
         id="stop3429" /><stop
         offset="0.67680001"
         style="stop-color:#fcfdfe;stop-opacity:1"
         id="stop3431" /><stop
         offset="1"
         style="stop-color:#ffffff;stop-opacity:1"
         id="stop3433" /></linearGradient></defs><path
     inkscape:connector-curvature="0"
     style="fill:url(#SVGID_1_)"
     id="path10"
     d="m 633.33328,183.80801 c -17.4,-3.4 -35,-2.3 -50.7,2.4 l -0.1,-0.1 c 7.5,-23.6 -2.1,-47.4 -22.8,-63.5 -11,-8.6 -25.1,-15 -41.5,-18.2 -31.8,-6.2 -64,1.4 -85.9,17.9 0.9,-31.4 -26.4,-60.2 -68.1,-68.3 -38.2,-7.4 -77.1,4.7 -98.4,28.2 -10.9,-13 -28.1,-23 -49.3,-27.1 -25.6,-5 -51.6,-0.4 -71.4,10.9 -14.7,-19.5 -39.3,-34.6 -70.3,-40.6 -25.7,-5 -51.7,-2.9 -74.4,4.6 l 0,275.2 c 12.1,0.2 23.9,-1.2 35,-4.1 9.1,23.1 33.3,42 66.2,48.4 18.4,3.6 36.9,2.7 53.7,-1.6 3.7,20.8 18.5,39.7 40.9,51.9 l 117.9,0 c 10.9,-5.9 20.4,-13.4 27.7,-22.3 9.2,5.6 20.1,9.9 32.3,12.3 13,2.5 26.1,2.7 38.4,0.7 19.5,-3 37.2,-11.2 49.9,-22.9 11.1,8.4 25.3,14.8 41.7,18 49.2,9.6 99.6,-13.1 112.6,-50.6 3.2,-9.1 3.8,-18.2 2.3,-27 34,-2.4 64.2,-20.7 73.4,-47.3 11.7,-33.9 -14.7,-68.3 -59.1,-76.9 z" /><path
     inkscape:connector-curvature="0"
     style="fill:url(#SVGID_2_)"
     id="path21"
     d="m 1179.4333,35.60801 c -19.8,-25.9 -59.9,-40.3 -100.1,-33.4 -37.4,6.4 -64.1,29.3 -70.1,56.4 -15.00002,-4.3 -31.80002,-5.5 -48.60002,-2.6 -30,5.1 -52.7,21.7 -61.8,42.5 -16.2,-4.6 -34.2,-5.9 -52.2,-2.8 -30.3,5.1 -53.5,21.2 -64.3,41.6 -6.7,12.7 -8.6,27.1 -4.2,41.6 1.9,6.3 4.9,12.2 8.7,17.6 -28.4,8.1 -45.3,31.3 -38.2,54.6 5.8,19.2 26.2,33.1 50.2,36.3 0.2,0.7 0.4,1.5 0.6,2.2 9.1,30.1 39.6,52.4 76.4,59.5 15.4,3 31.9,3.4 48.3,0.5 28.3,-4.8 51.2,-18 65.2,-35.4 15.30002,9.3 35.10002,14.1 55.40002,12.5 3,-0.2 5.9,-0.6 8.9,-1.1 19.4,-3.3 35.3,-12 45.7,-23.6 18.5,21.7 53.3,33.6 88.2,27.6 4.5,-0.8 8.7,-1.8 12.8,-3 l 0,-299.6 c -7.5,2.1 -14.6,5 -20.9,8.6 z" /><path
     inkscape:connector-curvature="0"
     style="fill:url(#SVGID_3_)"
     id="path32"
     d="m 412.53328,343.80801 c -3.1,-17.9 -17.8,-33.4 -38.7,-41.3 4.8,-6.6 8.2,-14.1 9.5,-22.1 5.3,-33 -25.4,-63 -68.7,-66.9 -10.5,-1 -20.8,-0.3 -30.4,1.8 -3.6,0.8 -7.1,1.7 -10.4,2.8 -8.5,-20.2 -31.7,-35.8 -61.2,-38.5 -10.7,-1 -21.2,-0.1 -30.9,2.2 -6.6,-27.8 -36.2,-50.2 -74.9,-53.7 -36,-3.3 -69.5,10.7 -86.3,33.4 -5.9,-3.8 -12.6,-7 -19.9,-9.4 l 0,200.9 412.6,0 c 0,-3.1 -0.1,-6.2 -0.7,-9.2 z" /><g
     id="g374"
     transform="translate(-392.36672,-768.79199)" /><g
     id="g888"
     transform="translate(-392.36672,-768.79199)" /><g
     style="opacity:0.3"
     id="g944"
     transform="translate(-392.36672,-768.79199)" /><g
     style="opacity:0.3"
     id="g976"
     transform="translate(-392.36672,-768.79199)" /><g
     style="opacity:0.3"
     id="g996"
     transform="translate(-392.36672,-768.79199)" /><g
     style="opacity:0.3"
     id="g1034"
     transform="translate(-392.36672,-768.79199)" /><g
     style="opacity:0.3"
     id="g1090"
     transform="translate(-392.36672,-768.79199)" /><g
     style="opacity:0.3"
     id="g1116"
     transform="translate(-392.36672,-768.79199)" /><g
     style="opacity:0.3"
     id="g1118"
     transform="translate(-392.36672,-768.79199)" /><g
     style="opacity:0.3"
     id="g1150"
     transform="translate(-392.36672,-768.79199)" /><path
     inkscape:connector-curvature="0"
     style="fill:url(#SVGID_4_)"
     id="path3435"
     d="m 1028.2333,339.80801 c -8.1,-3.5 -17.2,-6 -27,-7 2.5,-6.8 3.9,-14 3.9,-21.4 0,-44.4 -48.60002,-80.4 -108.60002,-80.4 -22,0 -42.4,4.8 -59.5,13.2 -14.3,-17.3 -37.9,-30 -65.7,-34.3 -6.7,-1 -13.7,-1.6 -20.8,-1.6 -20.5,0 -39.5,4.5 -55.4,12.2 -16.4,-29.3 -55.4,-49.9 -101,-49.9 -26.5,0 -50.8,7 -69.7,18.6 -16,9.9 -28.2,23 -34.5,38.1 -11.6,-3.9 -24.5,-6.1 -38.1,-6.1 -37.3,0 -69.5,16.3 -84.1,39.9 -14.7,-6.4 -31.8,-10 -50,-10 -54.8,0 -99.2,32.9 -99.2,73.4 0,1.4 0.1,2.8 0.2,4.2 0.6,8.3 3.1,16.2 7.2,23.5 -34.7,9.1 -59.5,33.6 -59.5,62.4 0,21 13.2,39.8 33.9,51.9 l 813.50002,0 c 3.5,-8.4 5.3,-17.4 5.3,-26.7 0,-0.9 0,-1.8 0,-2.6 21.7,-6.6 38.1,-20.7 43.6,-37.9 1.3,-4 1.9,-8.2 1.9,-12.5 0,-20 -14.6,-37.5 -36.4,-47 z" /><g
     transform="translate(0,-1534)"
     id="g3437" /><g
     transform="translate(0,-1534)"
     id="g3439" /><g
     transform="translate(0,-1534)"
     id="g3441" /><g
     transform="translate(0,-1534)"
     id="g3443" /><g
     transform="translate(0,-1534)"
     id="g3445" /><g
     transform="translate(0,-1534)"
     id="g3447" /><g
     transform="translate(0,-1534)"
     id="g3449" /><g
     transform="translate(0,-1534)"
     id="g3451" /><g
     transform="translate(0,-1534)"
     id="g3453" /><g
     transform="translate(0,-1534)"
     id="g3455" /><g
     transform="translate(0,-1534)"
     id="g3457" /><g
     transform="translate(0,-1534)"
     id="g3459" /><g
     transform="translate(0,-1534)"
     id="g3461" /><g
     transform="translate(0,-1534)"
     id="g3463" /><g
     transform="translate(0,-1534)"
     id="g3465" /></svg>