<?xml version="1.0" encoding="UTF-8" standalone="no"?>
<!-- Created with Inkscape (http://www.inkscape.org/) -->

<svg
   xmlns:dc="http://purl.org/dc/elements/1.1/"
   xmlns:cc="http://creativecommons.org/ns#"
   xmlns:rdf="http://www.w3.org/1999/02/22-rdf-syntax-ns#"
   xmlns:svg="http://www.w3.org/2000/svg"
   xmlns="http://www.w3.org/2000/svg"
   version="1.1"
   width="100%"
   height="100%"
   viewBox="0 0 91.4 90.9"
   id="Layer_1"
   xml:space="preserve"><metadata
     id="metadata67"><rdf:RDF><cc:Work
         rdf:about=""><dc:format>image/svg+xml</dc:format><dc:type
           rdf:resource="http://purl.org/dc/dcmitype/StillImage" /><dc:title></dc:title></cc:Work></rdf:RDF></metadata><defs
     id="defs65" /><g
     transform="translate(-954.4,-954.3)"
     id="g3"><g
       id="g5"><g
         id="g7"><path
           d="m 1020.9,1040.8 h -46.5 c -11,0 -20,-9 -20,-20 v -46.5 c 0,-11 9,-20 20,-20 h 46.5 c 11,0 20,9 20,20 v 46.5 c 0,11 -9,20 -20,20 z"
           id="path9"
           style="fill:#f3901d" /></g><g
         id="g11"><circle
           cx="976.09998"
           cy="978.09998"
           r="10.9"
           id="circle13"
           style="fill:#ffffff" /><circle
           cx="1019.2"
           cy="978.09998"
           r="10.9"
           id="circle15"
           style="fill:#ffffff" /><circle
           cx="1019.2"
           cy="1017"
           r="10.9"
           id="circle17"
           style="fill:#ffffff" /><circle
           cx="976.09998"
           cy="1017"
           r="10.9"
           id="circle19"
           style="fill:#ffffff" /></g></g><g
       id="g21"><path
         d="m 1045.8,1022.9 c 0,1.7 -0.2,3.4 -0.6,5 -1.9,8.3 -8.4,14.8 -16.7,16.7 -1.6,0.4 -3.3,0.6 -5,0.6 -12.3,0 -22.3,-10 -22.3,-22.3 0,-12.3 10,-22.3 22.3,-22.3 12.3,0 22.3,10 22.3,22.3 z"
         id="path23"
         style="fill:#4caf50" /><path
         d="m 1045.2,1027.9 c -1.9,8.3 -8.4,14.8 -16.7,16.7 l -19.7,-19.7 9.6,-1.3 5.5,-5.5 1.5,-9.9 19.8,19.7 z"
         id="path25"
         style="fill:#52a052" /><g
         id="g27"><path
           d="m 1023.5,1038.2 c -1.5,0 -2.5,-1.2 -2.5,-2.7 v -25.2 c 0,-1.5 1,-2.7 2.5,-2.7 1.5,0 2.5,1.2 2.5,2.7 v 25.2 c 0,1.5 -1,2.7 -2.5,2.7 z"
           id="path29"
           style="fill:#f2f2f2" /><path
           d="m 1036,1026 h -25.2 c -1.5,0 -2.7,-1 -2.7,-2.5 0,-1.5 1.2,-2.5 2.7,-2.5 h 25.2 c 1.5,0 2.7,1 2.7,2.5 0,1.5 -1.2,2.5 -2.7,2.5 z"
           id="path31"
           style="fill:#f2f2f2" /></g></g></g><g
     transform="translate(-954.4,-954.3)"
     id="g33" /><g
     transform="translate(-954.4,-954.3)"
     id="g35" /><g
     transform="translate(-954.4,-954.3)"
     id="g37" /><g
     transform="translate(-954.4,-954.3)"
     id="g39" /><g
     transform="translate(-954.4,-954.3)"
     id="g41" /><g
     transform="translate(-954.4,-954.3)"
     id="g43" /><g
     transform="translate(-954.4,-954.3)"
     id="g45" /><g
     transform="translate(-954.4,-954.3)"
     id="g47" /><g
     transform="translate(-954.4,-954.3)"
     id="g49" /><g
     transform="translate(-954.4,-954.3)"
     id="g51" /><g
     transform="translate(-954.4,-954.3)"
     id="g53" /><g
     transform="translate(-954.4,-954.3)"
     id="g55" /><g
     transform="translate(-954.4,-954.3)"
     id="g57" /><g
     transform="translate(-954.4,-954.3)"
     id="g59" /><g
     transform="translate(-954.4,-954.3)"
     id="g61" /></svg>