<?xml version="1.0" encoding="UTF-8" standalone="no"?>
<!-- Created with Inkscape (http://www.inkscape.org/) -->

<svg
   xmlns:dc="http://purl.org/dc/elements/1.1/"
   xmlns:cc="http://creativecommons.org/ns#"
   xmlns:rdf="http://www.w3.org/1999/02/22-rdf-syntax-ns#"
   xmlns:svg="http://www.w3.org/2000/svg"
   xmlns="http://www.w3.org/2000/svg"
   version="1.1"
   width="1200"
   height="275"
   viewBox="0 0 1200 275"
   id="Layer_1"
   xml:space="preserve"><metadata
     id="metadata15"><rdf:RDF><cc:Work
         rdf:about=""><dc:format>image/svg+xml</dc:format><dc:type
           rdf:resource="http://purl.org/dc/dcmitype/StillImage" /><dc:title></dc:title></cc:Work></rdf:RDF></metadata><defs
     id="defs13" /><g
     transform="translate(-400,-862.19942)"
     id="g3"><path
       d="M 1600,862.2 V 1138 H 762.7 c 16.9,-45.6 96.9,-115 238.1,-172.8 0,0 0,0 0,0 0,-0.1 0,-0.2 0,-0.2 64.6,-26.4 142,-49.8 231.9,-68.8 0.3,-0.1 0.7,-0.1 1.1,-0.2 0,0 0,0 0,0 105,-21 227.2,-33.9 366.2,-33.8 z"
       id="path5"
       style="fill:#72a624" /><path
       d="m 766.6,896.2 c -211.8,36.4 -361.5,121 -366.6,220 v -254 c 138.9,-0.1 261.5,13 366.6,34 z"
       id="path7"
       style="fill:#72a624" /><path
       d="M 1600,1138 H 400 v -21.7 c 5.1,-99.1 154.8,-183.6 366.6,-220 0,0 0,0 0.1,0 71.7,-12.3 150.5,-19.1 233.2,-19.1 82.6,0 161.3,6.8 232.9,19.1 0.3,0.1 0.7,0.1 1,0.2 0,0 0.1,0 0.1,0 215.1,37.1 366,124 366,225.2 0,5.4 0,10.9 0.1,16.3 z"
       id="path9"
       style="fill:#80ba27" /></g></svg>
