<?xml version="1.0" encoding="UTF-8" standalone="no"?>
<svg
   xmlns:dc="http://purl.org/dc/elements/1.1/"
   xmlns:cc="http://creativecommons.org/ns#"
   xmlns:rdf="http://www.w3.org/1999/02/22-rdf-syntax-ns#"
   xmlns:svg="http://www.w3.org/2000/svg"
   xmlns="http://www.w3.org/2000/svg"
   version="1.1"
   id="svg4328"
   viewBox="0 0 151.99999 176.99999"
   height="177"
   width="152">
  <defs
     id="defs4330" />
  <metadata
     id="metadata4333">
    <rdf:RDF>
      <cc:Work
         rdf:about="">
        <dc:format>image/svg+xml</dc:format>
        <dc:type
           rdf:resource="http://purl.org/dc/dcmitype/StillImage" />
        <dc:title></dc:title>
      </cc:Work>
    </rdf:RDF>
  </metadata>
  <g
     transform="translate(0,-875.36225)"
     id="layer1">
    <path
       d="m 27.270071,888.51785 c 29.2,-21.5 70.4,-15.2 91.799999,14 20.2,27.5 15.8,65.6 -9.2,87.9 l 5.2,7.00003 c 3.1,-2.30003 7.6,-1.60003 9.9,1.5 l 25.2,34.30002 c 2.3,3.1 1.6,7.6 -1.5,9.9 l -10.1,7.5 c -3.1,2.3 -7.6,1.6 -9.9,-1.5 l -25.2,-34.3 c -2.3,-3.2 -1.6,-7.6 1.5,-9.9 l -5.099999,-7.00002 c -28.8,17.20002 -66.4,10.00002 -86.6,-17.50003 -21.5000005,-29.3 -15.3000005,-70.4 14,-91.9 l 0,0 z m 66.1,89.9 c 20.399999,-15 24.799999,-43.7 9.799999,-64.1 -14.999999,-20.4 -43.699999,-24.8 -64.099999,-9.8 -20.4,15 -24.8,43.7 -9.8,64.1 14.9,20.4 43.6,24.8 64.1,9.8 l 0,0 0,0 z"
       id="path35"
       style="fill:#80ba27;fill-rule:evenodd" />
  </g>
</svg>
