<?xml version="1.0" encoding="UTF-8" standalone="no"?>
<!-- Created with Inkscape (http://www.inkscape.org/) -->

<svg
   xmlns:dc="http://purl.org/dc/elements/1.1/"
   xmlns:cc="http://creativecommons.org/ns#"
   xmlns:rdf="http://www.w3.org/1999/02/22-rdf-syntax-ns#"
   xmlns:svg="http://www.w3.org/2000/svg"
   xmlns="http://www.w3.org/2000/svg"
   xmlns:sodipodi="http://sodipodi.sourceforge.net/DTD/sodipodi-0.dtd"
   xmlns:inkscape="http://www.inkscape.org/namespaces/inkscape"
   version="1.1"
   width="620"
   height="176"
   viewBox="0 0 620 176"
   id="Layer_1"
   xml:space="preserve"
   inkscape:version="0.48.5 r10040"
   sodipodi:docname="logo-es.svg"><sodipodi:namedview
     pagecolor="#ffffff"
     bordercolor="#666666"
     borderopacity="1"
     objecttolerance="10"
     gridtolerance="10"
     guidetolerance="10"
     inkscape:pageopacity="0"
     inkscape:pageshadow="2"
     inkscape:window-width="1600"
     inkscape:window-height="834"
     id="namedview38"
     showgrid="false"
     inkscape:zoom="0.80918107"
     inkscape:cx="57.934807"
     inkscape:cy="105.04116"
     inkscape:window-x="0"
     inkscape:window-y="27"
     inkscape:window-maximized="1"
     inkscape:current-layer="Layer_1" /><metadata
     id="metadata71"><rdf:RDF><cc:Work
         rdf:about=""><dc:format>image/svg+xml</dc:format><dc:type
           rdf:resource="http://purl.org/dc/dcmitype/StillImage" /><dc:title /></cc:Work></rdf:RDF></metadata><defs
     id="defs69" /><g
     transform="translate(-689.5,-915.83034)"
     id="g27" /><g
     transform="translate(-689.5,-915.83034)"
     id="g37" /><g
     transform="translate(-689.5,-915.83034)"
     id="g39" /><g
     transform="translate(-689.5,-915.83034)"
     id="g41" /><g
     transform="translate(-689.5,-915.83034)"
     id="g43" /><g
     transform="translate(-689.5,-915.83034)"
     id="g45" /><g
     transform="translate(-689.5,-915.83034)"
     id="g47" /><g
     transform="translate(-689.5,-915.83034)"
     id="g49" /><g
     transform="translate(-689.5,-915.83034)"
     id="g51" /><g
     transform="translate(-689.5,-915.83034)"
     id="g53" /><g
     transform="translate(-689.5,-915.83034)"
     id="g55" /><g
     transform="translate(-689.5,-915.83034)"
     id="g57" /><g
     transform="translate(-689.5,-915.83034)"
     id="g59" /><g
     transform="translate(-689.5,-915.83034)"
     id="g61" /><g
     transform="translate(-689.5,-915.83034)"
     id="g63" /><g
     transform="translate(-689.5,-915.83034)"
     id="g65" /><g
     id="g3820"><path
       d="M 1.3460288,77.644749 C 0.90777094,76.983503 0.68864403,76.22778 0.68864732,75.377579 0.68864403,74.338474 1.003639,73.456797 1.6336331,72.732547 2.2910096,71.976841 3.0716492,71.59898 3.9755543,71.598962 c 1.1778006,1.8e-5 2.10909,0.582554 2.7938709,1.747611 0.328681,0.598295 0.7121531,1.165087 1.1504175,1.700378 2.3282133,3.211833 5.3138163,4.990929 8.9568213,5.337295 3.615575,0.314892 6.80661,-0.865924 9.573117,-3.542453 2.766448,-2.707994 4.300336,-6.140234 4.601669,-10.296729 0.301266,-4.187941 -0.725891,-7.856344 -3.081475,-11.00522 -2.328254,-3.1803 -5.313858,-4.943652 -8.956821,-5.290063 C 14.493639,49.808981 10.768482,47.60479 7.83767,43.637203 4.9068371,39.669704 3.6194665,35.072391 3.9755543,29.845253 4.3590198,24.649719 6.2763803,20.367291 9.7276419,16.997958 12.822796,13.94365 16.383609,12.416461 20.410089,12.416386 c 4.765987,7.5e-5 8.929399,2.251498 12.490247,6.754276 0.602564,0.818768 1.136685,1.668955 1.602367,2.550566 0.328653,0.598346 0.492998,1.275348 0.493036,2.031006 -3.8e-5,1.039183 -0.328728,1.936604 -0.986072,2.692264 -0.630027,0.724296 -1.39697,1.086413 -2.300835,1.086352 -1.040887,6.1e-5 -1.807832,-0.377801 -2.300835,-1.133585 -0.493067,-0.755661 -0.999799,-1.527127 -1.520194,-2.314402 -1.780438,-2.393057 -4.012793,-3.715572 -6.697073,-3.967547 -2.71172,-0.25184 -5.10842,0.645581 -7.190109,2.692264 -2.081723,2.015325 -3.232139,4.565888 -3.451252,7.651698 -0.219141,3.117412 0.547803,5.872651 2.300834,8.265723 1.78039,2.393171 4.012746,3.715685 6.697073,3.967548 5.45076,0.535349 9.942861,3.180377 13.476319,7.935093 3.095132,4.219489 4.642715,9.005731 4.642755,14.358743 -4e-5,0.724256 -0.02743,1.448491 -0.08218,2.172704 -0.438294,6.234731 -2.725431,11.367347 -6.861418,15.397861 -3.697799,3.621176 -7.902297,5.431762 -12.613505,5.431762 -5.889057,0 -10.9563667,-2.676518 -15.2019451,-8.029561 -0.575209,-0.724226 -1.0956354,-1.495692 -1.5612761,-2.314402"
       style="font-size:90.21942902000000686px;font-style:normal;font-variant:normal;font-weight:normal;font-stretch:normal;line-height:125%;letter-spacing:0px;word-spacing:0px;fill:#ffffff;fill-opacity:1;stroke:none;font-family:Comfortaa;-inkscape-font-specification:Comfortaa"
       id="path3016"
       inkscape:connector-curvature="0" /><path
       d="m 90.256862,61.538397 c -4.9e-5,7.305344 -2.2461,13.540055 -6.73816,18.704151 -4.492143,5.164111 -9.915535,7.746164 -16.270189,7.746164 -6.354707,0 -11.778097,-2.582053 -16.270189,-7.746164 -4.492112,-5.164096 -6.738163,-11.398807 -6.738159,-18.704151 -4e-6,-7.305291 2.246047,-13.540002 6.738159,-18.704151 4.492092,-5.164058 9.915482,-7.74611 16.270189,-7.746163 6.354654,5.3e-5 11.778046,2.582105 16.270189,7.746163 4.49206,5.164149 6.738111,11.39886 6.73816,18.704151 M 67.248513,42.645315 c -4.54691,4.5e-5 -8.422717,1.84212 -11.627433,5.526226 -3.204746,3.684188 -4.807112,8.139802 -4.807101,13.366856 -1.1e-5,5.227108 1.602355,9.682721 4.807101,13.366855 3.204716,3.684161 7.080523,5.526234 11.627433,5.526227 4.546857,7e-6 8.422664,-1.842066 11.627434,-5.526227 3.204693,-3.684134 4.807058,-8.139747 4.807101,-13.366855 -4.3e-5,-5.227054 -1.602408,-9.682668 -4.807101,-13.366856 -3.20477,-3.684106 -7.080577,-5.526181 -11.627434,-5.526226"
       style="font-size:90.21942902000000686px;font-style:normal;font-variant:normal;font-weight:normal;font-stretch:normal;line-height:125%;letter-spacing:0px;word-spacing:0px;fill:#ffffff;fill-opacity:1;stroke:none;font-family:Comfortaa;-inkscape-font-specification:Comfortaa"
       id="path3018"
       inkscape:connector-curvature="0" /><path
       d="m 103.40449,61.538397 c -10e-6,5.227108 1.60236,9.682721 4.8071,13.366855 3.20472,3.684161 7.08052,5.526234 11.62744,5.526227 4.54685,7e-6 8.42266,-1.842066 11.62743,-5.526227 3.2047,-3.684134 4.80706,-8.139747 4.8071,-13.366855 -4e-5,-5.227054 -1.6024,-9.682668 -4.8071,-13.366856 -3.20477,-3.684106 -7.08058,-5.526181 -11.62743,-5.526226 -4.54692,4.5e-5 -8.42272,1.84212 -11.62744,5.526226 -3.20474,3.684188 -4.80711,8.139802 -4.8071,13.366856 m 0,45.343393 c -10e-6,1.0391 -0.3287,1.92078 -0.98607,2.64503 -0.63,0.75571 -1.39695,1.13357 -2.30083,1.13359 -0.903907,-2e-5 -1.68455,-0.37788 -2.341923,-1.13359 -0.629999,-0.72425 -0.944989,-1.60593 -0.944989,-2.64503 l 0,-45.343393 c 0,-7.305291 2.246052,-13.540002 6.738152,-18.704151 4.4921,-5.164058 9.91549,-7.74611 16.2702,-7.746163 6.35465,5.3e-5 11.77805,2.582105 16.27019,7.746163 4.49206,5.164149 6.73811,11.39886 6.73816,18.704151 -5e-5,7.305344 -2.2461,13.540055 -6.73816,18.704151 -4.49214,5.164111 -9.91554,7.746164 -16.27019,7.746164 -6.35471,0 -11.7781,-2.582053 -16.2702,-7.746164 -0.0547,-0.06297 -0.10957,-0.125946 -0.16434,-0.188931 l 0,26.828173"
       style="font-size:90.21942902000000686px;font-style:normal;font-variant:normal;font-weight:normal;font-stretch:normal;line-height:125%;letter-spacing:0px;word-spacing:0px;fill:#ffffff;fill-opacity:1;stroke:none;font-family:Comfortaa;-inkscape-font-specification:Comfortaa"
       id="path3020"
       inkscape:connector-curvature="0" /><path
       d="m 172.42953,42.645315 c -4.54692,4.5e-5 -8.42272,1.84212 -11.62744,5.526226 -3.20474,3.684188 -4.80711,8.139802 -4.8071,13.366856 -1e-5,5.227108 1.60236,9.682721 4.8071,13.366855 3.20472,3.684161 7.08052,5.526234 11.62744,5.526227 4.54685,7e-6 8.42266,-1.842066 11.62743,-5.526227 3.2047,-3.684134 4.80706,-8.139747 4.8071,-13.366855 -4e-5,-5.227054 -1.6024,-9.682668 -4.8071,-13.366856 -3.20477,-3.684106 -7.08058,-5.526181 -11.62743,-5.526226 m 16.43453,37.408302 c -4.60171,5.290065 -10.07988,7.935095 -16.43453,7.935095 -6.35471,0 -11.7781,-2.582053 -16.2702,-7.746164 -4.4921,-5.164096 -6.73815,-11.398807 -6.73815,-18.704151 0,-7.305291 2.24605,-13.540002 6.73815,-18.704151 4.4921,-5.164058 9.91549,-7.74611 16.2702,-7.746163 6.35465,5.3e-5 11.77805,2.582105 16.27019,7.746163 4.49206,5.164149 6.73811,11.39886 6.73815,18.704151 l 0,22.671698 c -4e-5,1.039122 -0.32873,1.936542 -0.98607,2.692264 -0.63003,0.724235 -1.39698,1.086353 -2.30083,1.086353 -0.90395,0 -1.68458,-0.362118 -2.34192,-1.086353 -0.63003,-0.755722 -0.94503,-1.653142 -0.94499,-2.692264 l 0,-4.156478"
       style="font-size:90.21942902000000686px;font-style:normal;font-variant:normal;font-weight:normal;font-stretch:normal;line-height:125%;letter-spacing:0px;word-spacing:0px;fill:#ffffff;fill-opacity:1;stroke:none;font-family:Comfortaa;-inkscape-font-specification:Comfortaa"
       id="path3022"
       inkscape:connector-curvature="0" /><path
       d="m 256.46293,61.538397 c -5e-5,-5.227054 -1.60241,-9.682668 -4.80711,-13.366856 -3.20477,-3.684106 -7.08058,-5.526181 -11.62743,-5.526226 -4.54691,4.5e-5 -8.42272,1.84212 -11.62744,5.526226 -3.20474,3.684188 -4.80711,8.139802 -4.8071,13.366856 -1e-5,5.227108 1.60236,9.682721 4.8071,13.366855 3.20472,3.684161 7.08053,5.526234 11.62744,5.526227 4.54685,7e-6 8.42266,-1.842066 11.62743,-5.526227 3.2047,-3.684134 4.80706,-8.139747 4.80711,-13.366855 m 0,-45.437861 c -5e-5,-1.039047 0.31495,-1.920723 0.94498,-2.645031 0.65734,-0.755648 1.43797,-1.13351 2.34192,-1.133585 0.90385,7.5e-5 1.6708,0.377937 2.30083,1.133585 0.65734,0.724308 0.98603,1.605984 0.98608,2.645031 l 0,45.437861 c -5e-5,7.305344 -2.2461,13.540055 -6.73816,18.704151 -4.49215,5.164111 -9.91553,7.746164 -16.27019,7.746164 -6.35471,0 -11.7781,-2.582053 -16.27019,-7.746164 -4.49211,-5.164096 -6.73816,-11.398807 -6.73816,-18.704151 0,-7.305291 2.24605,-13.540002 6.73816,-18.704151 4.49209,-5.164058 9.91548,-7.74611 16.27019,-7.746163 6.35466,5.3e-5 11.77804,2.582105 16.27019,7.746163 0.0548,0.06302 0.10952,0.125999 0.16435,0.188931 l 0,-26.922641"
       style="font-size:90.21942902000000686px;font-style:normal;font-variant:normal;font-weight:normal;font-stretch:normal;line-height:125%;letter-spacing:0px;word-spacing:0px;fill:#ffffff;fill-opacity:1;stroke:none;font-family:Comfortaa;-inkscape-font-specification:Comfortaa"
       id="path3024"
       inkscape:connector-curvature="0" /><path
       d="m 308.76584,57.759781 c -0.60265,-3.62114 -2.10915,-6.817216 -4.5195,-9.58824 -3.20477,-3.684106 -7.08058,-5.526181 -11.62744,-5.526226 -4.54691,4.5e-5 -8.42271,1.84212 -11.62743,5.526226 -2.41041,2.771024 -3.91691,5.9671 -4.51949,9.58824 l 32.29386,0 m -3.49234,17.381635 c 0.90386,1.3e-5 1.6708,0.377874 2.30083,1.133585 0.65734,0.724246 0.98603,1.605921 0.98607,2.645031 -4e-5,1.039128 -0.31504,1.936548 -0.94498,2.692264 -4.24563,4.250946 -9.24446,6.376416 -14.99652,6.376416 -6.35471,0 -11.77809,-2.582053 -16.27019,-7.746164 -4.49211,-5.164096 -6.73816,-11.398807 -6.73815,-18.704151 -1e-5,-7.305291 2.24604,-13.540002 6.73815,-18.704151 4.4921,-5.164058 9.91548,-7.74611 16.27019,-7.746163 6.35465,5.3e-5 11.77805,2.582105 16.27019,7.746163 4.49206,5.164149 6.73811,11.39886 6.73816,18.704151 -5e-5,1.039145 -0.32874,1.936565 -0.98607,2.692264 -0.63003,0.724258 -1.39699,1.086375 -2.30084,1.086353 l -35.86836,0 c 0.60258,3.621193 2.10908,6.817268 4.51949,9.588238 3.20472,3.684161 7.08052,5.526234 11.62743,5.526227 4.1086,7e-6 7.64203,-1.495693 10.60027,-4.487108 0.60257,-0.535291 1.28734,-0.802942 2.05433,-0.802955"
       style="font-size:90.21942902000000686px;font-style:normal;font-variant:normal;font-weight:normal;font-stretch:normal;line-height:125%;letter-spacing:0px;word-spacing:0px;fill:#ffffff;fill-opacity:1;stroke:none;font-family:Comfortaa;-inkscape-font-specification:Comfortaa"
       id="path3026"
       inkscape:connector-curvature="0" /><path
       sodipodi:nodetypes="ccccscscccsscsc"
       d="m 347.96628,20.018116 c 0,-1.129157 0.42774,-2.087295 1.2832,-2.874417 0.89265,-0.821182 1.95265,-1.231813 3.18007,-1.231894 1.22739,8.1e-5 2.26881,0.410712 3.12426,1.231894 0.89264,0.787122 6.13759,3.056068 6.14518,4.185199 l 0.43693,65.001101 41.13707,0.436927 c 1.22727,0.01304 0.52106,3.46913 1.37657,4.290386 0.89259,0.787048 1.33893,1.745188 1.33898,2.874414 -5e-5,1.129242 -0.44639,2.104493 -1.33898,2.925746 -0.85551,0.787046 -1.89694,1.180575 -3.12428,1.180575 l -49.09573,0 c -1.22742,0 -2.28742,-0.393529 -3.18007,-1.180575 -0.85546,-0.821253 -1.2832,-1.796504 -1.2832,-2.925746 l 0,-73.91361"
       style="font-size:90.21942902000000686px;font-style:normal;font-variant:normal;font-weight:normal;font-stretch:normal;line-height:125%;letter-spacing:0px;word-spacing:0px;fill:#ffffff;fill-opacity:1;stroke:none;font-family:Comfortaa;-inkscape-font-specification:Comfortaa"
       id="path3028"
       inkscape:connector-curvature="0" /><path
       d="m 441.6683,57.759781 c -0.60265,-3.62114 -2.10914,-6.817216 -4.5195,-9.58824 -3.20477,-3.684106 -7.08058,-5.526181 -11.62743,-5.526226 -4.54692,4.5e-5 -8.42272,1.84212 -11.62744,5.526226 -2.4104,2.771024 -3.91691,5.9671 -4.51949,9.58824 l 32.29386,0 m -3.49234,17.381635 c 0.90386,1.3e-5 1.6708,0.377874 2.30083,1.133585 0.65734,0.724246 0.98603,1.605921 0.98608,2.645031 -5e-5,1.039128 -0.31504,1.936548 -0.94499,2.692264 -4.24563,4.250946 -9.24446,6.376416 -14.99651,6.376416 -6.35471,0 -11.7781,-2.582053 -16.2702,-7.746164 -4.4921,-5.164096 -6.73815,-11.398807 -6.73815,-18.704151 0,-7.305291 2.24605,-13.540002 6.73815,-18.704151 4.4921,-5.164058 9.91549,-7.74611 16.2702,-7.746163 6.35465,5.3e-5 11.77805,2.582105 16.27019,7.746163 4.49206,5.164149 6.73811,11.39886 6.73816,18.704151 -5e-5,1.039145 -0.32874,1.936565 -0.98608,2.692264 -0.63003,0.724258 -1.39698,1.086375 -2.30083,1.086353 l -35.86837,0 c 0.60258,3.621193 2.10909,6.817268 4.51949,9.588238 3.20472,3.684161 7.08052,5.526234 11.62744,5.526227 4.1086,7e-6 7.64203,-1.495693 10.60027,-4.487108 0.60256,-0.535291 1.28734,-0.802942 2.05432,-0.802955"
       style="font-size:90.21942902000000686px;font-style:normal;font-variant:normal;font-weight:normal;font-stretch:normal;line-height:125%;letter-spacing:0px;word-spacing:0px;fill:#ffffff;fill-opacity:1;stroke:none;font-family:Comfortaa;-inkscape-font-specification:Comfortaa"
       id="path3030"
       inkscape:connector-curvature="0" /><path
       d="m 478.11188,80.431479 c 0.90388,7e-6 1.67082,0.377868 2.30084,1.133585 0.65735,0.72424 0.98604,1.605917 0.98607,2.645031 -3e-5,1.039122 -0.32872,1.936542 -0.98607,2.692264 -0.63002,0.724235 -1.39696,1.086353 -2.30084,1.086353 -10.95637,0 -16.43454,-6.297688 -16.43453,-18.893083 l 0,-26.450314 -3.28691,0 c -0.90391,4.5e-5 -1.68454,-0.362071 -2.34192,-1.086351 -0.62999,-0.755677 -0.94499,-1.653097 -0.94498,-2.692264 -1e-5,-1.039069 0.31499,-1.920746 0.94498,-2.645032 0.65738,-0.755671 1.43801,-1.133532 2.34192,-1.133585 l 3.28691,0 0,-18.893081 c -10e-6,-1.039047 0.31498,-1.920724 0.94499,-2.645031 0.65736,-0.755649 1.438,-1.13351 2.34192,-1.133585 0.90387,7.5e-5 1.67083,0.377936 2.30083,1.133585 0.65737,0.724307 0.98605,1.605984 0.98607,2.645031 l 0,18.893081 6.6149,0 c 0.90388,5.3e-5 1.67082,0.377914 2.30083,1.133585 0.65736,0.724286 0.98606,1.605963 0.98607,2.645032 -1e-5,1.039167 -0.32871,1.936587 -0.98607,2.692264 -0.63001,0.72428 -1.39695,1.086396 -2.30083,1.086351 l -6.6149,0 0,26.450314 c -2e-5,7.557245 3.28689,11.335857 9.86072,11.33585"
       style="font-size:90.21942902000000686px;font-style:normal;font-variant:normal;font-weight:normal;font-stretch:normal;line-height:125%;letter-spacing:0px;word-spacing:0px;fill:#ffffff;fill-opacity:1;stroke:none;font-family:Comfortaa;-inkscape-font-specification:Comfortaa"
       id="path3032"
       inkscape:connector-curvature="0" /><path
       d="m 487.97258,38.8667 c 0,-1.039069 0.31499,-1.920746 0.94499,-2.645032 0.65737,-0.755671 1.43802,-1.133532 2.34192,-1.133585 0.90389,5.3e-5 1.67083,0.377914 2.30083,1.133585 0.65737,0.724286 0.98606,1.605963 0.98607,2.645032 l 0,4.156477 c 4.60166,-5.290012 10.07984,-7.935041 16.43454,-7.935094 3.2047,5.3e-5 6.14922,0.629822 8.83356,1.889309 0.493,0.220469 0.94495,0.551098 1.35585,0.991886 0.62995,0.755772 0.94495,1.653193 0.94499,2.692264 -4e-5,1.039166 -0.32873,1.936586 -0.98607,2.692264 -0.63003,0.724279 -1.39697,1.086396 -2.30084,1.086352 -0.52046,4.4e-5 -0.99979,-0.12591 -1.43802,-0.377861 -1.94478,-0.944609 -4.08127,-1.416937 -6.40947,-1.416982 -4.54691,4.5e-5 -8.42272,1.84212 -11.62743,5.526226 -3.20474,3.684188 -4.80712,8.139802 -4.80711,13.366856 l 0,22.671698 c -10e-6,1.039122 -0.3287,1.936542 -0.98607,2.692264 -0.63,0.724235 -1.39694,1.086353 -2.30083,1.086353 -0.9039,0 -1.68455,-0.362118 -2.34192,-1.086353 -0.63,-0.755722 -0.94499,-1.653142 -0.94499,-2.692264 l 0,-45.343395"
       style="font-size:90.21942902000000686px;font-style:normal;font-variant:normal;font-weight:normal;font-stretch:normal;line-height:125%;letter-spacing:0px;word-spacing:0px;fill:#ffffff;fill-opacity:1;stroke:none;font-family:Comfortaa;-inkscape-font-specification:Comfortaa"
       id="path3034"
       inkscape:connector-curvature="0" /><path
       d="m 550.4238,42.645315 c -4.5469,4.5e-5 -8.42271,1.84212 -11.62743,5.526226 -3.20475,3.684188 -4.80711,8.139802 -4.8071,13.366856 -1e-5,5.227108 1.60235,9.682721 4.8071,13.366855 3.20472,3.684161 7.08053,5.526234 11.62743,5.526227 4.54686,7e-6 8.42267,-1.842066 11.62743,-5.526227 3.2047,-3.684134 4.80707,-8.139747 4.80711,-13.366855 -4e-5,-5.227054 -1.60241,-9.682668 -4.80711,-13.366856 -3.20476,-3.684106 -7.08057,-5.526181 -11.62743,-5.526226 m 16.43454,37.408302 c -4.60171,5.290065 -10.07988,7.935095 -16.43454,7.935095 -6.3547,0 -11.7781,-2.582053 -16.27018,-7.746164 -4.49212,-5.164096 -6.73817,-11.398807 -6.73817,-18.704151 0,-7.305291 2.24605,-13.540002 6.73817,-18.704151 4.49208,-5.164058 9.91548,-7.74611 16.27018,-7.746163 6.35466,5.3e-5 11.77805,2.582105 16.27019,7.746163 4.49206,5.164149 6.73811,11.39886 6.73816,18.704151 l 0,22.671698 c -5e-5,1.039122 -0.32874,1.936542 -0.98607,2.692264 -0.63004,0.724235 -1.39698,1.086353 -2.30083,1.086353 -0.90395,0 -1.68459,-0.362118 -2.34192,-1.086353 -0.63004,-0.755722 -0.94503,-1.653142 -0.94499,-2.692264 l 0,-4.156478"
       style="font-size:90.21942902000000686px;font-style:normal;font-variant:normal;font-weight:normal;font-stretch:normal;line-height:125%;letter-spacing:0px;word-spacing:0px;fill:#ffffff;fill-opacity:1;stroke:none;font-family:Comfortaa;-inkscape-font-specification:Comfortaa"
       id="path3036"
       inkscape:connector-curvature="0" /><path
       d="m 588.14107,61.538397 c -2.49259,-1.07058 -4.2319,-2.18842 -5.21798,-3.353522 -1.94475,-2.20416 -2.91712,-4.864934 -2.91712,-7.982327 0,-3.117317 1.01345,-5.841068 3.04039,-8.171258 3.94428,-4.628754 9.09376,-6.943154 15.44846,-6.943207 6.87509,5.3e-5 12.76412,3.164641 17.66712,9.493774 0.43822,0.598324 0.64365,1.338301 0.6163,2.219936 -4e-5,1.03916 -0.32873,1.936581 -0.98607,2.692264 -0.63003,0.724273 -1.39698,1.086391 -2.30084,1.086353 -0.90393,3.8e-5 -1.62979,-0.330591 -2.17757,-0.991887 -0.54785,-0.661219 -0.94502,-1.133545 -1.19151,-1.416982 -3.20476,-3.684106 -7.08057,-5.526181 -11.62743,-5.526226 -4.5469,4.5e-5 -8.1762,1.637445 -10.88788,4.912202 -0.65739,0.913205 -0.98609,1.999556 -0.98607,3.259056 0.0822,1.479995 0.75324,2.487624 2.01323,3.022893 l 20.21447,7.698931 c 2.49254,1.070633 4.23187,2.188473 5.21798,3.353522 1.9447,2.204214 2.91708,4.864987 2.91712,7.982327 -4e-5,3.11737 -1.0135,5.841121 -3.04039,8.171258 -3.94432,4.628807 -9.0938,6.943208 -15.44846,6.943208 -6.90252,0 -12.79155,-3.164589 -17.66712,-9.493774 -0.41087,-0.661248 -0.6163,-1.401226 -0.6163,-2.219937 0,-1.039108 0.31499,-1.920783 0.94499,-2.645032 0.65737,-0.755708 1.43801,-1.133569 2.34192,-1.133585 0.90388,1.6e-5 1.62974,0.330644 2.17757,0.991887 0.54781,0.661272 0.94497,1.133598 1.19151,1.416981 3.20472,3.684161 7.08053,5.526234 11.62743,5.526227 4.54686,7e-6 8.17615,-1.637392 10.88788,-4.912202 0.65735,-0.913152 0.98604,-1.999503 0.98607,-3.259056 -0.0822,-1.479941 -0.75328,-2.487571 -2.01323,-3.022893 l -20.21447,-7.698931"
       style="font-size:90.21942902000000686px;font-style:normal;font-variant:normal;font-weight:normal;font-stretch:normal;line-height:125%;letter-spacing:0px;word-spacing:0px;fill:#ffffff;fill-opacity:1;stroke:none;font-family:Comfortaa;-inkscape-font-specification:Comfortaa"
       id="path3038"
       inkscape:connector-curvature="0" /></g><path
     d="m 334.67865,13.377568 c 27.76418,-20.4428027 66.93829,-14.452586 87.28601,13.311593 19.20673,26.147771 15.02309,62.37432 -8.74761,83.577789 l 4.9443,6.6558 c 2.94757,-2.18691 7.22629,-1.52133 9.4132,1.42624 l 23.96087,32.6134 c 2.1869,2.94757 1.52132,7.22629 -1.42625,9.4132 l -9.60336,7.13121 c -2.94757,2.1869 -7.22629,1.52132 -9.4132,-1.42624 l -23.96086,-32.61341 c -2.18691,-3.04265 -1.52133,-7.22629 1.42624,-9.41319 l -4.84923,-6.6558 c -27.38384,16.35424 -63.13498,9.50828 -82.3417,-16.63949 -20.44281,-27.859266 -14.54767,-66.938299 13.31159,-87.381102 l 0,0 z M 397.52838,98.85701 C 416.92527,84.594589 421.10892,57.305824 406.8465,37.908932 392.58408,18.51204 365.29531,14.328396 345.89842,28.590817 c -19.39689,14.262421 -23.58054,41.551186 -9.31812,60.948078 14.16734,19.396895 41.45611,23.580535 60.94808,9.318115 l 0,0 0,0 z"
     id="path35"
     style="fill:#80ba27;fill-rule:evenodd"
     inkscape:connector-curvature="0" /></svg>