<?xml version="1.0" encoding="UTF-8" standalone="no"?>
<!-- Created with Inkscape (http://www.inkscape.org/) -->

<svg
   xmlns:dc="http://purl.org/dc/elements/1.1/"
   xmlns:cc="http://creativecommons.org/ns#"
   xmlns:rdf="http://www.w3.org/1999/02/22-rdf-syntax-ns#"
   xmlns:svg="http://www.w3.org/2000/svg"
   xmlns="http://www.w3.org/2000/svg"
   version="1.1"
   width="620"
   height="176"
   viewBox="0 0 620 176"
   id="Layer_1"
   xml:space="preserve"><metadata
     id="metadata71"><rdf:RDF><cc:Work
         rdf:about=""><dc:format>image/svg+xml</dc:format><dc:type
           rdf:resource="http://purl.org/dc/dcmitype/StillImage" /><dc:title></dc:title></cc:Work></rdf:RDF></metadata><defs
     id="defs69" /><g
     transform="translate(-689.5,-915.83034)"
     id="g3"><g
       id="g5"><path
         d="m 699.9,1007.1 c 0,1.7 -0.5,3.1 -1.4,4.1 -0.9,1 -2.2,1.5 -3.8,1.5 -1.6,0 -2.8,-0.5 -3.8,-1.5 -0.9,-1 -1.4,-2.3 -1.4,-4.1 v -73.5 c 0,-1.6 0.4,-2.9 1.3,-4 0.9,-1.1 2.3,-1.7 4.2,-1.7 h 29.5 c 1.5,0 2.7,0.4 3.7,1.2 0.9,0.8 1.4,2 1.4,3.7 0,1.7 -0.5,2.9 -1.4,3.7 -0.9,0.8 -2.2,1.2 -3.7,1.2 h -24.7 v 27.5 h 21.8 c 1.5,0 2.7,0.4 3.7,1.2 0.9,0.8 1.4,2 1.4,3.7 0,1.7 -0.5,2.9 -1.4,3.7 -0.9,0.8 -2.2,1.2 -3.7,1.2 h -21.8 v 32.1 z"
         id="path7"
         style="fill:#ffffff" /><path
         d="m 736.4,933.6 c 0,-1.8 0.6,-3.3 1.8,-4.5 1.2,-1.2 2.7,-1.8 4.5,-1.8 1.8,0 3.3,0.6 4.5,1.8 1.2,1.2 1.8,2.7 1.8,4.5 0,1.8 -0.6,3.3 -1.8,4.5 -1.2,1.2 -2.7,1.8 -4.5,1.8 -1.8,0 -3.3,-0.6 -4.5,-1.8 -1.2,-1.2 -1.8,-2.7 -1.8,-4.5 z m 11.5,73.5 c 0,1.7 -0.5,3.1 -1.4,4.1 -0.9,1 -2.2,1.5 -3.8,1.5 -1.6,0 -2.8,-0.5 -3.8,-1.5 -0.9,-1 -1.4,-2.3 -1.4,-4.1 V 954 c 0,-1.7 0.5,-3.1 1.4,-4.1 0.9,-1 2.2,-1.5 3.8,-1.5 1.6,0 2.8,0.5 3.8,1.5 0.9,1 1.4,2.3 1.4,4.1 v 53.1 z"
         id="path9"
         style="fill:#ffffff" /><path
         d="m 761.6,954 c 0,-1.7 0.5,-3.1 1.4,-4.1 0.9,-1 2.2,-1.5 3.8,-1.5 1.6,0 2.8,0.5 3.8,1.5 0.9,1 1.4,2.3 1.4,4.1 v 2.5 l 0.2,0.2 c 2.3,-3 5,-5.1 8,-6.4 3.1,-1.3 6.2,-1.9 9.3,-1.9 2.4,0 4.9,0.4 7.5,1.2 2.6,0.8 4.9,2.2 7,4.1 2.1,1.9 3.9,4.3 5.2,7.4 1.4,3 2.1,6.7 2.1,11.1 v 34.8 c 0,1.7 -0.5,3.1 -1.4,4.1 -0.9,1 -2.2,1.5 -3.8,1.5 -1.6,0 -2.8,-0.5 -3.8,-1.5 -1,-1 -1.4,-2.3 -1.4,-4.1 v -34.2 c 0,-2.8 -0.4,-5.1 -1.3,-7.1 -0.9,-2 -2,-3.6 -3.4,-4.8 -1.4,-1.2 -2.9,-2.1 -4.7,-2.7 -1.7,-0.6 -3.5,-0.9 -5.2,-0.9 -1.7,0 -3.5,0.3 -5.2,0.9 -1.7,0.6 -3.3,1.5 -4.7,2.7 -1.4,1.2 -2.5,2.8 -3.4,4.8 -0.9,2 -1.3,4.3 -1.3,7.1 v 34.2 c 0,1.7 -0.5,3.1 -1.4,4.1 -0.9,1 -2.2,1.5 -3.8,1.5 -1.6,0 -2.8,-0.5 -3.8,-1.5 -0.9,-1 -1.4,-2.3 -1.4,-4.1 v -53 z"
         id="path11"
         style="fill:#ffffff" /><path
         d="m 866.1,1004 h -0.2 c -3,5.7 -8.6,8.6 -16.7,8.6 -4.2,0 -8,-0.9 -11.3,-2.7 -3.3,-1.8 -6.1,-4.1 -8.4,-7.1 -2.3,-3 -4.1,-6.4 -5.2,-10.3 -1.2,-3.9 -1.8,-7.9 -1.8,-12 0,-4.2 0.6,-8.2 1.8,-12 1.2,-3.9 2.9,-7.3 5.2,-10.3 2.3,-3 5.1,-5.4 8.4,-7.1 3.3,-1.8 7.1,-2.7 11.3,-2.7 2,0 4,0.3 5.7,0.8 1.8,0.5 3.4,1.2 4.8,2 1.4,0.8 2.6,1.8 3.7,2.8 1,1 1.9,2 2.6,2.9 h 0.2 v -30.5 c 0,-1.7 0.5,-3.1 1.4,-4.1 0.9,-1 2.2,-1.5 3.8,-1.5 1.6,0 2.8,0.5 3.8,1.5 0.9,1 1.4,2.3 1.4,4.1 v 80.7 c 0,1.7 -0.5,3.1 -1.4,4.1 -0.9,1 -2.2,1.5 -3.8,1.5 -1.6,0 -2.8,-0.5 -3.8,-1.5 -1,-1 -1.4,-2.3 -1.4,-4.1 v -3.1 z m 1.1,-23.4 c 0,-2.7 -0.3,-5.4 -0.9,-8.1 -0.6,-2.7 -1.6,-5.2 -2.9,-7.4 -1.4,-2.2 -3.2,-4.1 -5.4,-5.5 -2.2,-1.4 -4.9,-2.1 -8,-2.1 -3.2,0 -5.9,0.7 -8.1,2.1 -2.2,1.4 -3.9,3.2 -5.3,5.5 -1.4,2.2 -2.4,4.7 -2.9,7.4 -0.6,2.7 -0.9,5.4 -0.9,8.1 0,2.7 0.3,5.4 0.9,8.1 0.6,2.7 1.6,5.2 2.9,7.4 1.4,2.2 3.1,4.1 5.3,5.5 2.2,1.4 4.9,2.1 8.1,2.1 3.1,0 5.8,-0.7 8,-2.1 2.2,-1.4 4,-3.2 5.4,-5.5 1.4,-2.2 2.4,-4.7 2.9,-7.4 0.5,-2.7 0.9,-5.5 0.9,-8.1 z"
         id="path13"
         style="fill:#ffffff" /><path
         d="m 892.4,984.8 c -1.3,0 -2.3,-0.4 -3.2,-1.3 -0.9,-0.9 -1.3,-1.9 -1.3,-3.2 0,-1.3 0.4,-2.3 1.3,-3.2 0.9,-0.9 1.9,-1.3 3.2,-1.3 h 24.3 c 1.3,0 2.3,0.4 3.2,1.3 0.9,0.9 1.3,1.9 1.3,3.2 0,1.3 -0.4,2.3 -1.3,3.2 -0.9,0.9 -1.9,1.3 -3.2,1.3 h -24.3 z"
         id="path15"
         style="fill:#ffffff" /><path
         d="m 984,1007.6 c 0,1.8 -0.6,3.1 -1.7,3.9 -1.1,0.8 -2.2,1.2 -3.2,1.2 -1.1,0 -2.2,-0.4 -3.2,-1.2 -1,-0.8 -1.6,-2.1 -1.6,-3.9 v -4.4 h -0.2 c -2.3,3.2 -4.9,5.6 -7.7,7.1 -2.9,1.5 -6,2.3 -9.4,2.3 -4.4,0 -8.3,-0.9 -11.7,-2.7 -3.4,-1.8 -6.3,-4.1 -8.7,-7.1 -2.4,-3 -4.1,-6.4 -5.4,-10.3 -1.2,-3.9 -1.8,-7.9 -1.8,-12 0,-4.2 0.6,-8.2 1.8,-12 1.2,-3.9 3,-7.3 5.4,-10.3 2.4,-3 5.2,-5.4 8.7,-7.1 3.4,-1.8 7.3,-2.7 11.7,-2.7 3.6,0 6.8,0.7 9.4,2.2 2.7,1.5 5.2,3.5 7.7,6.2 h 0.2 v -3.3 c 0,-1.8 0.5,-3.1 1.6,-3.9 1.1,-0.8 2.1,-1.2 3.2,-1.2 1,0 2.1,0.4 3.2,1.2 1.1,0.8 1.7,2.1 1.7,3.9 v 54.1 z m -44.2,-27 c 0,2.7 0.3,5.4 0.9,8.1 0.6,2.7 1.6,5.2 2.9,7.4 1.4,2.2 3.1,4.1 5.3,5.5 2.2,1.4 4.9,2.1 8.1,2.1 3.1,0 5.8,-0.7 8,-2.1 2.2,-1.4 4,-3.2 5.4,-5.5 1.4,-2.2 2.4,-4.7 2.9,-7.4 0.5,-2.7 0.9,-5.4 0.9,-8.1 0,-2.7 -0.3,-5.4 -0.9,-8.1 -0.6,-2.7 -1.6,-5.2 -2.9,-7.4 -1.4,-2.2 -3.2,-4.1 -5.4,-5.5 -2.2,-1.4 -4.9,-2.1 -8,-2.1 -3.2,0 -5.9,0.7 -8.1,2.1 -2.2,1.4 -3.9,3.2 -5.3,5.5 -1.4,2.2 -2.4,4.7 -2.9,7.4 -0.6,2.7 -0.9,5.4 -0.9,8.1 z"
         id="path17"
         style="fill:#ffffff" /><path
         d="m 999.5,984.8 c -1.3,0 -2.3,-0.4 -3.2,-1.3 -0.9,-0.9 -1.3,-1.9 -1.3,-3.2 0,-1.3 0.4,-2.3 1.3,-3.2 0.9,-0.9 1.9,-1.3 3.2,-1.3 h 24.3 c 1.3,0 2.3,0.4 3.2,1.3 0.9,0.9 1.3,1.9 1.3,3.2 0,1.3 -0.4,2.3 -1.3,3.2 -0.9,0.9 -1.9,1.3 -3.2,1.3 h -24.3 z"
         id="path19"
         style="fill:#ffffff" /><path
         d="m 1155,980.6 c 0,-4.2 0.6,-8.2 1.8,-12 1.2,-3.9 3,-7.3 5.4,-10.3 2.4,-3 5.2,-5.4 8.7,-7.1 3.4,-1.8 7.3,-2.7 11.7,-2.7 4.4,0 8.3,0.9 11.7,2.7 3.4,1.8 6.3,4.1 8.7,7.1 2.4,3 4.1,6.4 5.4,10.3 1.2,3.9 1.8,7.9 1.8,12 0,4.2 -0.6,8.2 -1.8,12 -1.2,3.9 -3,7.3 -5.4,10.3 -2.4,3 -5.2,5.4 -8.7,7.1 -3.4,1.8 -7.3,2.7 -11.7,2.7 -4.4,0 -8.3,-0.9 -11.7,-2.7 -3.4,-1.8 -6.3,-4.1 -8.7,-7.1 -2.4,-3 -4.1,-6.4 -5.4,-10.3 -1.2,-3.9 -1.8,-7.9 -1.8,-12 z m 10.4,0 c 0,2.7 0.3,5.4 0.9,8.1 0.6,2.7 1.6,5.2 2.9,7.4 1.4,2.2 3.1,4.1 5.3,5.5 2.2,1.4 4.9,2.1 8.1,2.1 3.1,0 5.8,-0.7 8,-2.1 2.2,-1.4 4,-3.2 5.4,-5.5 1.4,-2.2 2.4,-4.7 2.9,-7.4 0.5,-2.7 0.9,-5.4 0.9,-8.1 0,-2.7 -0.3,-5.4 -0.9,-8.1 -0.6,-2.7 -1.6,-5.2 -2.9,-7.4 -1.4,-2.2 -3.2,-4.1 -5.4,-5.5 -2.2,-1.4 -4.9,-2.1 -8,-2.1 -3.2,0 -5.9,0.7 -8.1,2.1 -2.2,1.4 -3.9,3.2 -5.3,5.5 -1.4,2.2 -2.4,4.7 -2.9,7.4 -0.5,2.7 -0.9,5.4 -0.9,8.1 z"
         id="path21"
         style="fill:#ffffff" /><path
         d="m 1221.2,954 c 0,-1.7 0.5,-3.1 1.4,-4.1 0.9,-1 2.2,-1.5 3.8,-1.5 1.6,0 2.8,0.5 3.8,1.5 0.9,1 1.4,2.3 1.4,4.1 v 5.3 h 0.2 c 0.5,-1.2 1.3,-2.4 2.4,-3.7 1,-1.3 2.1,-2.5 3.4,-3.5 1.2,-1.1 2.6,-1.9 4,-2.6 1.5,-0.7 2.9,-1 4.4,-1 1.8,0 3.2,0.5 4.2,1.5 1,1 1.5,2.3 1.5,3.8 0,3 -2.2,4.9 -6.5,5.7 -1.6,0.2 -3.2,0.7 -4.8,1.5 -1.6,0.7 -3.1,1.8 -4.4,3.2 -1.3,1.4 -2.4,3.2 -3.2,5.3 -0.8,2.1 -1.3,4.7 -1.3,7.8 v 29.8 c 0,1.7 -0.5,3.1 -1.4,4.1 -0.9,1 -2.2,1.5 -3.8,1.5 -1.6,0 -2.8,-0.5 -3.8,-1.5 -0.9,-1 -1.4,-2.3 -1.4,-4.1 V 954 z"
         id="path23"
         style="fill:#ffffff" /><path
         d="m 1299.3,1004 h -0.2 c -3,5.7 -8.6,8.6 -16.7,8.6 -4.2,0 -8,-0.9 -11.3,-2.7 -3.3,-1.8 -6.1,-4.1 -8.4,-7.1 -2.3,-3 -4.1,-6.4 -5.2,-10.3 -1.2,-3.9 -1.8,-7.9 -1.8,-12 0,-4.2 0.6,-8.2 1.8,-12 1.2,-3.9 2.9,-7.3 5.2,-10.3 2.3,-3 5.1,-5.4 8.4,-7.1 3.3,-1.8 7.1,-2.7 11.3,-2.7 2,0 4,0.3 5.7,0.8 1.8,0.5 3.4,1.2 4.8,2 1.4,0.8 2.6,1.8 3.7,2.8 1,1 1.9,2 2.6,2.9 h 0.2 v -30.5 c 0,-1.7 0.5,-3.1 1.4,-4.1 0.9,-1 2.2,-1.5 3.8,-1.5 1.6,0 2.8,0.5 3.8,1.5 0.9,1 1.4,2.3 1.4,4.1 v 80.7 c 0,1.7 -0.5,3.1 -1.4,4.1 -0.9,1 -2.2,1.5 -3.8,1.5 -1.6,0 -2.8,-0.5 -3.8,-1.5 -1,-1 -1.4,-2.3 -1.4,-4.1 v -3.1 z m 1.1,-23.4 c 0,-2.7 -0.3,-5.4 -0.9,-8.1 -0.6,-2.7 -1.6,-5.2 -2.9,-7.4 -1.3,-2.2 -3.2,-4.1 -5.4,-5.5 -2.2,-1.4 -4.9,-2.1 -8,-2.1 -3.2,0 -5.9,0.7 -8.1,2.1 -2.2,1.4 -3.9,3.2 -5.3,5.5 -1.4,2.2 -2.4,4.7 -2.9,7.4 -0.6,2.7 -0.9,5.4 -0.9,8.1 0,2.7 0.3,5.4 0.9,8.1 0.6,2.7 1.6,5.2 2.9,7.4 1.4,2.2 3.1,4.1 5.3,5.5 2.2,1.4 4.9,2.1 8.1,2.1 3.1,0 5.8,-0.7 8,-2.1 2.2,-1.4 4,-3.2 5.4,-5.5 1.4,-2.2 2.4,-4.7 2.9,-7.4 0.5,-2.7 0.9,-5.5 0.9,-8.1 z"
         id="path25"
         style="fill:#ffffff" /></g><g
       id="g27" /><g
       id="g29"><g
         id="g31"><path
           d="m 1037.7,954.5 c 0.2,-1.6 0.7,-3.1 1.4,-4.3 1.3,-2.3 5,-5.9 9,-7.2 2.6,-0.8 4.3,-0.6 3.8,4.7 -1.5,16.9 5.4,35.9 13.9,55.9 0.1,0 0.2,0 0.3,0 3.6,-18.5 11.8,-38.1 18.4,-57.9 2.2,-6.4 3.4,-9.9 7.7,-9.9 4.3,0 5.5,3.5 7.7,9.9 6.6,19.8 14.8,39.4 18.4,57.9 0.1,0 0.2,0 0.3,0 8.5,-20 15.4,-39 13.9,-55.9 -0.5,-5.3 1.2,-5.6 3.8,-4.7 4,1.4 7.6,5 9,7.2 0.7,1.2 1.2,2.7 1.4,4.3 2,17.5 -9.7,39.1 -23.1,62.5 -3.3,5.6 -5.8,8 -9.1,8.5 -3.2,0.5 -4.8,-1.2 -5.5,-6.7 -2.7,-19.3 -10.4,-39.6 -16.5,-59.7 -0.1,0 -0.2,0 -0.3,0 -6.1,20.2 -13.9,40.5 -16.5,59.7 -0.8,5.5 -2.3,7.2 -5.5,6.7 -3.3,-0.6 -5.8,-2.9 -9.1,-8.5 -13.7,-23.4 -25.4,-45 -23.4,-62.5 z"
           id="path33"
           style="fill:#ffffff" /></g></g><path
       d="m 1051.5,928.6 c 29.2,-21.5 70.4,-15.2 91.8,14 20.2,27.5 15.8,65.6 -9.2,87.9 l 5.2,7 c 3.1,-2.3 7.6,-1.6 9.9,1.5 l 25.2,34.3 c 2.3,3.1 1.6,7.6 -1.5,9.9 l -10.1,7.5 c -3.1,2.3 -7.6,1.6 -9.9,-1.5 l -25.2,-34.3 c -2.3,-3.2 -1.6,-7.6 1.5,-9.9 l -5.1,-7 c -28.8,17.2 -66.4,10 -86.6,-17.5 -21.5,-29.3 -15.3,-70.4 14,-91.9 l 0,0 z m 66.1,89.9 c 20.4,-15 24.8,-43.7 9.8,-64.1 -15,-20.4 -43.7,-24.8 -64.1,-9.8 -20.4,15 -24.8,43.7 -9.8,64.1 14.9,20.4 43.6,24.8 64.1,9.8 l 0,0 0,0 z"
       id="path35"
       style="fill:#80ba27;fill-rule:evenodd" /></g><g
     transform="translate(-689.5,-915.83034)"
     id="g37" /><g
     transform="translate(-689.5,-915.83034)"
     id="g39" /><g
     transform="translate(-689.5,-915.83034)"
     id="g41" /><g
     transform="translate(-689.5,-915.83034)"
     id="g43" /><g
     transform="translate(-689.5,-915.83034)"
     id="g45" /><g
     transform="translate(-689.5,-915.83034)"
     id="g47" /><g
     transform="translate(-689.5,-915.83034)"
     id="g49" /><g
     transform="translate(-689.5,-915.83034)"
     id="g51" /><g
     transform="translate(-689.5,-915.83034)"
     id="g53" /><g
     transform="translate(-689.5,-915.83034)"
     id="g55" /><g
     transform="translate(-689.5,-915.83034)"
     id="g57" /><g
     transform="translate(-689.5,-915.83034)"
     id="g59" /><g
     transform="translate(-689.5,-915.83034)"
     id="g61" /><g
     transform="translate(-689.5,-915.83034)"
     id="g63" /><g
     transform="translate(-689.5,-915.83034)"
     id="g65" /></svg>
