<?xml version="1.0" encoding="UTF-8" standalone="no"?>
<svg
   xmlns:dc="http://purl.org/dc/elements/1.1/"
   xmlns:cc="http://creativecommons.org/ns#"
   xmlns:rdf="http://www.w3.org/1999/02/22-rdf-syntax-ns#"
   xmlns:svg="http://www.w3.org/2000/svg"
   xmlns="http://www.w3.org/2000/svg"
   xmlns:sodipodi="http://sodipodi.sourceforge.net/DTD/sodipodi-0.dtd"
   xmlns:inkscape="http://www.inkscape.org/namespaces/inkscape"
   version="1.1"
   x="0px"
   y="0px"
   viewBox="0 0 100 100"
   enable-background="new 0 0 100 100"
   xml:space="preserve"
   id="svg4885"
   inkscape:version="0.91 r13725"
   sodipodi:docname="question.svg"><metadata
     id="metadata4893"><rdf:RDF><cc:Work
         rdf:about=""><dc:format>image/svg+xml</dc:format><dc:type
           rdf:resource="http://purl.org/dc/dcmitype/StillImage" /></cc:Work></rdf:RDF></metadata><defs
     id="defs4891" /><sodipodi:namedview
     pagecolor="#ffffff"
     bordercolor="#666666"
     borderopacity="1"
     objecttolerance="10"
     gridtolerance="10"
     guidetolerance="10"
     inkscape:pageopacity="0"
     inkscape:pageshadow="2"
     inkscape:window-width="1600"
     inkscape:window-height="836"
     id="namedview4889"
     showgrid="false"
     inkscape:zoom="6.47"
     inkscape:cx="50"
     inkscape:cy="50"
     inkscape:window-x="0"
     inkscape:window-y="27"
     inkscape:window-maximized="1"
     inkscape:current-layer="svg4885" /><path
     d="M50,5C25.1,5,5,25.1,5,50c0,24.8,20.1,45,45,45c24.9,0,45-20.2,45-45C95,25.1,74.9,5,50,5L50,5z M48.8,82.2  c-3.4,0-6.1-2.7-6.1-6.1c0-3.4,2.7-6.1,6.1-6.1c3.4,0,6.1,2.8,6.1,6.1C54.9,79.5,52.2,82.2,48.8,82.2L48.8,82.2z M58.5,50.9  c-2.7,2.8-4.6,4.9-4.6,9.5c0,2.8-2.3,5.1-5.1,5.1c-2.8,0-5.1-2.3-5.1-5.1c0-8.7,4.2-13.2,7.3-16.5c2.7-2.9,4-4.4,4-7.7  c0-3.4-2.8-6.2-6.2-6.2c-3.4,0-6.2,2.8-6.2,6.2c0,2.8-2.3,5.1-5.1,5.1c-2.8,0-5.1-2.3-5.1-5.1c0-9,7.3-16.3,16.3-16.3  c9,0,16.3,7.3,16.3,16.3C65.2,43.7,61.5,47.7,58.5,50.9z"
     id="path4887"
     style="fill:#f3cb20;fill-opacity:1" /></svg>