<?xml version="1.0" encoding="utf-8"?>
<!-- Generator: Adobe Illustrator 18.1.0, SVG Export Plug-In . SVG Version: 6.00 Build 0)  -->
<!DOCTYPE svg PUBLIC "-//W3C//DTD SVG 1.1//EN" "http://www.w3.org/Graphics/SVG/1.1/DTD/svg11.dtd">
<svg version="1.1" id="Layer_1" xmlns="http://www.w3.org/2000/svg" 
xmlns:xlink="http://www.w3.org/1999/xlink" x="0px" y="0px" width="71" height="42"
	 viewBox="0 0 70.5 41.4" enable-background="new 0 0 70.5 41.4" xml:space="preserve">
<g>
	<path fill="#3f3f3f" d="M15.5,0h6.2l15.5,40.6h-5.7l-3.7-10.4H9.5L5.8,40.6H0L15.5,0z M18.6,5.4l-7.4,20.2h14.9L18.6,5.4z"/>
	<path fill="#3f3f3f" d="M65.5,10.1h5v30.4h-5V36c-1.1,1.8-2.4,3.2-4,4c-1.6,0.9-3.5,1.3-5.8,1.3c-3.7,0-6.7-1.5-9-4.4
		c-2.3-2.9-3.5-6.8-3.5-11.6c0-4.8,1.2-8.6,3.5-11.6c2.3-2.9,5.3-4.4,9-4.4c2.3,0,4.2,0.4,5.8,1.3c1.6,0.9,2.9,2.2,4,4V10.1z
		 M48.5,25.4c0,3.7,0.8,6.6,2.3,8.7c1.5,2.1,3.6,3.1,6.3,3.1s4.7-1,6.3-3.1c1.5-2.1,2.3-5,2.3-8.7c0-3.7-0.8-6.5-2.3-8.6
		c-1.5-2.1-3.6-3.2-6.3-3.2s-4.7,1.1-6.3,3.2C49.2,18.8,48.5,21.7,48.5,25.4z"/>
</g>
</svg>
