<?xml version="1.0" encoding="UTF-8" standalone="no"?>
<!-- Created with Inkscape (http://www.inkscape.org/) -->

<svg
   xmlns:dc="http://purl.org/dc/elements/1.1/"
   xmlns:cc="http://creativecommons.org/ns#"
   xmlns:rdf="http://www.w3.org/1999/02/22-rdf-syntax-ns#"
   xmlns:svg="http://www.w3.org/2000/svg"
   xmlns="http://www.w3.org/2000/svg"
   version="1.1"
   width="480"
   height="97"
   viewBox="0 0 480 97"
   id="Layer_1"
   xml:space="preserve"><metadata
     id="metadata39"><rdf:RDF><cc:Work
         rdf:about=""><dc:format>image/svg+xml</dc:format><dc:type
           rdf:resource="http://purl.org/dc/dcmitype/StillImage" /><dc:title></dc:title></cc:Work></rdf:RDF></metadata><defs
     id="defs37" /><path
     d="m 480.4,0 c -22.1,13.9 -36.9,12.9 -59.4,9.5 0.1,0 -1.5,6.5 -12.6,25.5 -6.6,11.3 -16.2,20.9 -26.3,29.1 -45.2,36.6 -117,40.4 -158.8,-3.8 C 204.9,73.7 179.6,81.2 153.6,79.1 132,77.4 113.9,69.3 101.6,57.6 83,83.3 45.7,99.7 7,96.6 4.2,96.4 3,96.1 0,95.7 V 0 h 480.4 z"
     id="path3"
     style="fill:#ffffff" /><g
     transform="translate(-760.1,-949)"
     id="g5" /><g
     transform="translate(-760.1,-949)"
     id="g7" /><g
     transform="translate(-760.1,-949)"
     id="g9" /><g
     transform="translate(-760.1,-949)"
     id="g11" /><g
     transform="translate(-760.1,-949)"
     id="g13" /><g
     transform="translate(-760.1,-949)"
     id="g15" /><g
     transform="translate(-760.1,-949)"
     id="g17" /><g
     transform="translate(-760.1,-949)"
     id="g19" /><g
     transform="translate(-760.1,-949)"
     id="g21" /><g
     transform="translate(-760.1,-949)"
     id="g23" /><g
     transform="translate(-760.1,-949)"
     id="g25" /><g
     transform="translate(-760.1,-949)"
     id="g27" /><g
     transform="translate(-760.1,-949)"
     id="g29" /><g
     transform="translate(-760.1,-949)"
     id="g31" /><g
     transform="translate(-760.1,-949)"
     id="g33" /></svg>
