<?xml version="1.0" ?><!DOCTYPE svg  PUBLIC '-//W3C//DTD SVG 1.1//EN'  'http://www.w3.org/Graphics/SVG/1.1/DTD/svg11.dtd' [
	<!ENTITY stroke_color "#010101">
	<!ENTITY fill_color "#FFFFFF">
]>
<svg version="1.1" id="Layer_1" xmlns="http://www.w3.org/2000/svg" xmlns:xlink="http://www.w3.org/1999/xlink" x="0px" y="0px"
	 width="75px" height="75px" viewBox="0 0 75 75" enable-background="new 0 0 75 75" xml:space="preserve">
<g>
	<path fill="&stroke_color;" d="M20.79,36.198c0,0.899,0,2.284-1.677,2.284c-1.021,0-1.435-0.558-1.677-1.482
		c-0.899,1.069-1.993,1.628-3.33,1.628c-3.281,0-5.785-2.794-5.785-6.732c0-3.84,2.577-6.781,5.785-6.781
		c1.289,0,2.552,0.511,3.33,1.604c0.097-0.851,0.827-1.458,1.677-1.458c1.677,0,1.677,1.385,1.677,2.285V36.198z M14.592,35.42
		c1.823,0,2.698-1.847,2.698-3.524s-0.851-3.573-2.698-3.573c-1.92,0-2.771,1.896-2.771,3.573S12.696,35.42,14.592,35.42z"/>
	<path fill="&stroke_color;" d="M25.579,21.566c0-1.167,0.729-1.944,1.75-1.944c1.021,0,1.75,0.777,1.75,1.944v4.764
		c0.923-0.802,2.114-1.215,3.33-1.215c3.768,0,5.638,3.525,5.638,6.927c0,3.306-2.235,6.586-5.76,6.586
		c-1.191,0-2.552-0.535-3.208-1.604c-0.219,0.923-0.778,1.458-1.75,1.458c-1.021,0-1.75-0.778-1.75-1.944V21.566z M31.826,35.42
		c1.823,0,2.722-1.895,2.722-3.524c0-1.653-0.899-3.573-2.722-3.573c-1.872,0-2.747,1.75-2.747,3.452
		C29.079,33.476,29.905,35.42,31.826,35.42z"/>
	<path fill="&stroke_color;" d="M51.028,29.003c-0.875,0-1.652-0.68-2.771-0.68c-1.993,0-2.941,1.774-2.941,3.573
		c0,1.726,1.045,3.524,2.941,3.524c0.874,0,2.187-0.729,2.6-0.729c0.826,0,1.506,0.705,1.506,1.531c0,1.798-3.013,2.406-4.277,2.406
		c-3.767,0-6.27-3.086-6.27-6.732c0-3.548,2.576-6.781,6.27-6.781c1.387,0,4.277,0.511,4.277,2.212
		C52.363,28.056,51.854,29.003,51.028,29.003z"/>
</g>
<g>
	<g>
		<path fill="&fill_color;" d="M62.167,69.46c-0.915,0-1.701-0.303-2.273-0.876C58.58,67.271,47.44,54.942,46.549,53.912
			c-0.121-0.141-0.221-0.274-0.31-0.42c-0.232-0.38-0.263-0.849-0.083-1.256c0.181-0.407,0.549-0.699,0.986-0.782
			c0.376-0.071,1.216-0.401,2.623-1.807c1.515-1.515,1.765-2.368,1.802-2.664c0.057-0.448,0.332-0.839,0.735-1.041
			c0.192-0.097,0.4-0.146,0.609-0.146c0.229,0,0.459,0.059,0.665,0.175c0.214,0.12,0.398,0.253,0.563,0.404
			c1.026,0.889,13.39,12.062,14.643,13.315c2.019,2.02,0.189,5.542-1.438,7.288C66.229,68.182,64.033,69.46,62.167,69.46
			L62.167,69.46z"/>
		<path fill="&stroke_color;" d="M52.912,47.152c0.101,0.057,0.209,0.127,0.313,0.223c0.935,0.811,13.332,12.007,14.599,13.274
			c1.268,1.268-0.227,4.072-1.47,5.406c-0.911,0.98-2.765,2.049-4.188,2.049c-0.518,0-0.978-0.141-1.315-0.479
			c-1.268-1.268-12.472-13.669-13.277-14.601c-0.07-0.081-0.128-0.157-0.179-0.24c0.767-0.146,1.851-0.703,3.328-2.179
			C52.294,49.035,52.816,47.913,52.912,47.152 M52.912,44.442c-0.417,0-0.835,0.096-1.219,0.289
			c-0.803,0.404-1.353,1.18-1.469,2.069c-0.014,0.054-0.194,0.665-1.418,1.89c-1.295,1.293-1.911,1.431-1.917,1.432
			c-0.865,0.178-1.609,0.769-1.961,1.579c-0.353,0.811-0.307,1.745,0.155,2.498c0.126,0.208,0.271,0.404,0.443,0.603
			c0.891,1.03,12.085,13.418,13.407,14.741c0.833,0.832,1.95,1.272,3.232,1.272c2.273,0,4.826-1.466,6.173-2.914
			c1.97-2.114,4.095-6.475,1.401-9.169c-1.316-1.316-13.484-12.311-14.718-13.386c-0.233-0.209-0.489-0.392-0.781-0.556
			C53.83,44.559,53.371,44.442,52.912,44.442L52.912,44.442z"/>
	</g>
	<g>
		<path fill="&fill_color;" d="M30.837,55.142c-6.546,0-12.701-2.549-17.331-7.178c-9.552-9.555-9.552-25.101,0-34.656
			c4.63-4.629,10.784-7.179,17.33-7.179s12.7,2.549,17.328,7.179c7.739,7.738,9.397,19.591,4.168,29.106
			c0.359,0.723,0.618,1.803,0.198,3.222c-0.386,1.296-1.296,2.671-2.705,4.089c-1.416,1.411-2.793,2.324-4.096,2.717
			c-0.498,0.15-0.99,0.226-1.465,0.226c-0.765,0-1.38-0.19-1.848-0.425C38.871,54.142,34.886,55.142,30.837,55.142z M30.835,12.347
			c-4.894,0-9.49,1.899-12.941,5.349c-7.132,7.133-7.132,18.743,0,25.882c3.45,3.449,8.046,5.349,12.94,5.349
			c4.895,0,9.49-1.899,12.941-5.349s5.352-8.044,5.352-12.938c0-4.895-1.9-9.491-5.352-12.944
			C40.325,14.246,35.729,12.347,30.835,12.347z"/>
		<path fill="&stroke_color;" d="M30.835,7.485c5.925,0,11.849,2.26,16.37,6.781c7.648,7.648,8.828,19.313,3.536,28.198
			c0.32,0.348,0.938,1.267,0.488,2.787c-0.279,0.939-0.96,2.104-2.366,3.518c-1.411,1.406-2.582,2.091-3.526,2.376
			c-0.398,0.12-0.756,0.168-1.073,0.168c-0.958,0-1.55-0.438-1.787-0.656c-3.587,2.087-7.613,3.13-11.639,3.13
			c-5.925,0-11.851-2.26-16.373-6.78c-9.039-9.042-9.039-23.698,0-32.74C18.986,9.745,24.911,7.485,30.835,7.485 M30.835,50.281
			c5.034,0,10.067-1.916,13.899-5.746c7.665-7.661,7.665-20.131,0-27.798c-3.832-3.831-8.866-5.746-13.899-5.746
			c-5.033,0-10.067,1.915-13.899,5.746c-7.661,7.662-7.661,20.131,0,27.798C20.768,48.365,25.802,50.281,30.835,50.281
			 M30.835,4.774c-6.907,0-13.402,2.69-18.288,7.575c-10.08,10.083-10.08,26.489,0,36.572c4.887,4.885,11.382,7.575,18.29,7.575
			c4.055,0,8.049-0.951,11.644-2.762c0.507,0.172,1.102,0.287,1.782,0.287c0.606,0,1.23-0.095,1.854-0.282
			c1.543-0.466,3.065-1.464,4.659-3.052c1.601-1.609,2.596-3.132,3.051-4.665c0.36-1.218,0.35-2.442-0.004-3.527
			c5.147-9.941,3.312-22.134-4.702-30.146C44.237,7.464,37.743,4.774,30.835,4.774L30.835,4.774z M30.835,47.57
			c-4.533,0-8.789-1.759-11.983-4.952c-6.604-6.609-6.604-17.36,0-23.965c3.194-3.193,7.45-4.952,11.983-4.952
			c4.532,0,8.788,1.759,11.983,4.952c3.194,3.196,4.954,7.452,4.954,11.985c0,4.532-1.759,8.786-4.954,11.979
			S35.368,47.57,30.835,47.57L30.835,47.57z"/>
	</g>
</g>
</svg>
